<svg id="Layer_1" data-name="Layer 1" xmlns="http://www.w3.org/2000/svg" viewBox="0 0 54.82 60.8"><defs><style>.cls-1{fill:#eeecd7;}.cls-2{fill:#1c3a68;}.cls-3{fill:#000015;}.cls-4{fill:#f7ba37;}.cls-5{fill:#fff;}.cls-6{fill:#f8bb38;}</style></defs><path class="cls-1" d="M54.7,55.59l-.05-.12a26.8,26.8,0,0,0-2.35-4.61l-.25-.38.72-.67a1,1,0,0,0,.16-1.32.91.91,0,0,0-.18-.21l-.1-.14a25.68,25.68,0,0,0-5-5.14,32.34,32.34,0,0,0-20.2-6.93A32.38,32.38,0,0,0,7.24,43a25.88,25.88,0,0,0-5,5.13l-.1.14a.91.91,0,0,0-.18.21,1,1,0,0,0,.16,1.32l.72.67-.24.38A27.77,27.77,0,0,0,.24,55.47l0,.12a1,1,0,0,0-.11.65,1,1,0,0,0,1.12.86l.17,0a24.82,24.82,0,0,1,3.08-.44,32.22,32.22,0,0,0,1.76,3.64,1,1,0,0,0,.9.53h.09a1,1,0,0,0,.88-.7,22.32,22.32,0,0,1,3.16-5.5,20.78,20.78,0,0,1,2.68-2.89,1.15,1.15,0,0,0,.48-1,1,1,0,0,0-.18-.47c-.17-.26-.36-.52-.54-.78a23.74,23.74,0,0,1,13.74-4.27A23.76,23.76,0,0,1,41.2,49.44l-.54.77a1,1,0,0,0-.18.49,1.15,1.15,0,0,0,.49,1,21.26,21.26,0,0,1,2.69,2.91A21.88,21.88,0,0,1,46.8,60.1a1,1,0,0,0,.88.69h.1a1,1,0,0,0,.9-.53,37.11,37.11,0,0,0,1.76-3.64,24.82,24.82,0,0,1,3.08.44l.16,0a1,1,0,0,0,1.13-.86A1,1,0,0,0,54.7,55.59Z"/><path class="cls-2" d="M1.1,56.08a28.74,28.74,0,0,1,2.37-4.67,20.84,20.84,0,0,1,5.9-6.29c1.36,1.88,2.7,3.78,4,5.68a23.94,23.94,0,0,0-3,3.18,22.86,22.86,0,0,0-3.31,5.79,34.66,34.66,0,0,1-2-4.21A25,25,0,0,0,1.1,56.08Z"/><path class="cls-3" d="M9.51,44.79a33,33,0,0,0-.65,6.48c-.32.73-.6,1.47-.86,2.22a22.81,22.81,0,0,1,5.39-2.69C12.1,48.8,10.8,46.8,9.51,44.79Z"/><path class="cls-2" d="M53.79,56.07a27.93,27.93,0,0,0-2.37-4.66,20.6,20.6,0,0,0-5.9-6.29q-2,2.82-4,5.68a24,24,0,0,1,6.27,9,35.38,35.38,0,0,0,2-4.21A25.86,25.86,0,0,1,53.79,56.07Z"/><path class="cls-3" d="M45.39,44.79A33.72,33.72,0,0,1,46,51.27q.48,1.09.87,2.22a22.62,22.62,0,0,0-5.39-2.69Q43.44,47.79,45.39,44.79Z"/><circle class="cls-2" cx="27.31" cy="27.31" r="27.31"/><path class="cls-4" d="M27.31,53.17A26.09,26.09,0,1,1,53.39,27.09,26.11,26.11,0,0,1,27.31,53.17Zm0-51.32A25.24,25.24,0,1,0,52.54,27.09,25.27,25.27,0,0,0,27.31,1.85Z"/><path class="cls-5" d="M27.31,43.94A16.93,16.93,0,1,1,44.24,27,16.94,16.94,0,0,1,27.31,43.94Zm0-33.29A16.37,16.37,0,1,0,43.67,27,16.38,16.38,0,0,0,27.31,10.65Z"/><circle class="cls-5" cx="27.31" cy="27.01" r="15.61"/><polygon class="cls-5" points="27.34 48.16 27.67 49.11 28.67 49.13 27.87 49.73 28.16 50.69 27.34 50.11 26.52 50.69 26.82 49.73 26.01 49.13 27.02 49.11 27.34 48.16"/><polygon class="cls-5" points="31.73 47.56 32.24 48.12 32.94 47.83 32.57 48.49 33.06 49.07 32.32 48.91 31.92 49.56 31.84 48.8 31.1 48.63 31.79 48.31 31.73 47.56"/><polygon class="cls-5" points="35.75 46.4 36.32 46.74 36.84 46.32 36.69 46.97 37.25 47.33 36.59 47.39 36.42 48.04 36.16 47.42 35.49 47.47 35.99 47.02 35.75 46.4"/><polygon class="cls-5" points="22.95 47.77 22.44 48.34 21.74 48.05 22.12 48.71 21.62 49.28 22.37 49.13 22.76 49.78 22.85 49.02 23.59 48.84 22.89 48.53 22.95 47.77"/><polygon class="cls-5" points="18.94 46.03 18.36 46.38 17.85 45.95 18 46.6 17.43 46.96 18.1 47.02 18.27 47.67 18.53 47.06 19.2 47.1 18.69 46.66 18.94 46.03"/><path class="cls-6" d="M8.29,35.79c.48-.21.82-.34.89-.47s0-.2-.13-.59a1.4,1.4,0,0,0-.31-.51.57.57,0,0,0-.51-.07c-.06,0-.1,0-.11,0s0-.05.07-.08a4.82,4.82,0,0,1,.73-.21c.14,0,.16,0,.25.21.28.65.45,1.1.67,1.6.09.22.22.47.33.73,0,.07,0,.11,0,.13s-.06,0-.09-.08a1.19,1.19,0,0,0-.09-.15c-.1-.16-.18-.12-.57,0l-.77.32L7.82,37c-.76.34-.85.38-1,.46s-.2.13-.18.27a1.3,1.3,0,0,0,.06.19c0,.05,0,.1,0,.12s-.07,0-.11-.12c-.12-.27-.21-.52-.3-.7s-.29-.62-.36-.79,0-.12,0-.14.08,0,.1.09,0,.1.09.16.19.11.36,0,.25-.09,1-.43Z"/><path class="cls-6" d="M6.83,33.41a2,2,0,0,1-2.39-1.8,2,2,0,0,1,1.5-2.43,2,2,0,0,1,2.47,1.74A2,2,0,0,1,6.83,33.41Zm-.48-3.26c-.84.15-1.73.68-1.57,1.57.09.47.44.94,1.64.72,1-.18,1.8-.75,1.64-1.62C8,30.51,7.74,29.89,6.35,30.15Z"/><path class="cls-6" d="M7.68,25.83c0-.6-.07-.83-.32-.93l-.17-.06c-.06,0-.08,0-.08-.07s0,0,.11,0a4.11,4.11,0,0,1,.77.19c.07,0,.13,0,.13.14,0,.86-.12,1.72-.18,2.91,0,.05,0,.09-.05.09s-.08,0-.18-.1L4.56,25.77l0,.88a1.67,1.67,0,0,0,.06.72.68.68,0,0,0,.41.32c.07,0,.1,0,.1.07s0,0-.1,0-.64-.11-.83-.15-.1,0-.1-.06,0-.1,0-.21c0-.49.05-.73.06-1l.09-1.7c0-.05,0-.08.06-.08a.29.29,0,0,1,.14.07c1.09.72,2.21,1.49,3.18,2.17Z"/><path class="cls-6" d="M6.06,23,5,22.79c-.14,0-.25,0-.29.12a1.16,1.16,0,0,0-.06.15c0,.06,0,.09-.07.08s0,0,0-.12.17-.69.18-.73.13-.64.17-.82,0-.11.07-.1,0,.06,0,.11a1,1,0,0,1,0,.15c0,.13,0,.2.23.25s.29.08,1.07.26l.88.2c.4.09.87.19,1.08.22a.24.24,0,0,0,.3-.14,1.8,1.8,0,0,0,.08-.21c0-.09,0-.1.07-.1s0,0,0,.12c-.08.34-.22.88-.23.92s-.11.56-.15.73,0,.12-.07.11-.05,0,0-.12,0-.1,0-.16-.09-.16-.23-.21-.57-.16-1.06-.27Z"/><path class="cls-6" d="M9.49,18.72a1.88,1.88,0,0,1-1.63-.18,1.92,1.92,0,0,1-.92-1.26,2.41,2.41,0,0,1,.38-1.74,3.25,3.25,0,0,1,.41-.6c.14-.19.23-.28.31-.41s.06,0,.08,0l.29.19.51.31c.07,0,.1.07.08.11s-.06,0-.13,0a.75.75,0,0,0-.53-.07,1.39,1.39,0,0,0-.79.74,1.06,1.06,0,0,0-.16.78,1.69,1.69,0,0,0,.91,1,1.53,1.53,0,0,0,2.24-.38,1,1,0,0,0,.21-.9.77.77,0,0,0-.21-.31c-.09-.08-.11-.11-.09-.15s.07,0,.1,0a6.35,6.35,0,0,1,.62.49.17.17,0,0,1,.07.19,2.79,2.79,0,0,1-.33.83A2.81,2.81,0,0,1,9.49,18.72Z"/><path class="cls-6" d="M12.28,11.88a0,0,0,0,0,0,0l-.08-.08c-.58-.55-.64-.61-.77-.72a.26.26,0,0,0-.35,0l-.13.12c0,.06-.09,0-.11,0s0-.06,0-.12c.2-.21.54-.53.57-.57L12,9.85c.06,0,.09-.06.11,0s0,.06,0,.1l-.1.14c-.08.11,0,.2.06.33s.21.21.78.76l.66.63c.35.33.62.6.8.73s.22.13.35,0l.17-.15a.09.09,0,0,1,.1,0s0,.07,0,.11l-.68.69c-.05.05-.32.36-.5.54s-.09.07-.11,0,0-.05,0-.1l.1-.13c.06-.1,0-.19-.1-.32s-.36-.39-.72-.73l-.3-.29h0l-1.11,1.16s0,0,0,0l.39.37c.35.34.51.48.68.62s.22.13.35,0l.16-.14s.08-.06.11,0,0,0,0,.11l-.66.67-.51.56s-.09.07-.11,0,0-.06,0-.11a.73.73,0,0,0,.09-.13c.08-.1,0-.22-.09-.34s-.4-.41-.75-.75l-.65-.62a9.78,9.78,0,0,0-.79-.73c-.14-.12-.24-.15-.39,0a.48.48,0,0,0-.11.09c-.07.06-.09,0-.11,0s0-.07,0-.11l.58-.58.57-.62c.07-.06.09-.06.11,0s0,.06,0,.1l-.11.15c-.08.12,0,.22.09.33s.26.27.73.71l.07.08a0,0,0,0,0,.05,0Z"/><path class="cls-6" d="M14.83,9.62c-.42-.68-.48-.76-.57-.9s-.21-.2-.33-.16l-.19.1c-.05,0-.09,0-.11,0s0-.06.08-.1.61-.37.68-.4.49-.33.69-.45a2.18,2.18,0,0,1,1-.41.87.87,0,0,1,.81.43,1.2,1.2,0,0,1,0,1.24c.51.22,1.11.49,1.57.63s.55.13.68.07l.12-.05s.08,0,.1,0,0,.07-.06.1l-.4.24a1.58,1.58,0,0,1-.88.35,1.83,1.83,0,0,1-.79-.27l-.78-.39a0,0,0,0,0-.06,0l-.29.17s0,0,0,.06l.14.22a7.72,7.72,0,0,0,.48.73A.26.26,0,0,0,17,11l.21-.09c.07,0,.09,0,.11,0s0,.05-.07.09l-.81.49-.62.4c-.06,0-.09,0-.11,0s0-.07.05-.1l.14-.11c.07-.07.06-.17,0-.33s-.28-.5-.54-.93Zm.94-.17a.08.08,0,0,0,.08,0,1.11,1.11,0,0,0,.37-.15.58.58,0,0,0,.23-.24.84.84,0,0,0-.17-.66A.79.79,0,0,0,15.17,8a.59.59,0,0,0-.16.12.06.06,0,0,0,0,.07Z"/><path class="cls-6" d="M19.18,7.29c-.29-.74-.34-.88-.41-1s-.15-.2-.26-.18a.56.56,0,0,0-.15,0c-.06,0-.1,0-.12,0s0,0,.09-.09L19,5.76l.78-.31c.08,0,.11,0,.12,0s0,.06-.07.08l-.13.07c-.12.07-.14.15-.09.33s.09.28.38,1l.32.85c.14.38.32.82.42,1A.22.22,0,0,0,21,9l.22,0c.08,0,.11,0,.12,0s0,0-.08.08c-.33.13-.85.31-.89.32l-.69.28c-.08,0-.12,0-.13,0s0-.06.07-.09l.15-.07c.09-.06.09-.17.05-.32s-.18-.56-.36-1Z"/><path class="cls-6" d="M22.28,8.68c-.09,0-.13-.08-.15-.18C22,8.09,22,7.89,22,7.75s0-.13,0-.13.05,0,.06.07a.94.94,0,0,0,.06.15.85.85,0,0,0,1,.47c.48-.1.57-.37.53-.59s-.12-.38-.61-.58L22.71,7c-.71-.31-.95-.62-1-1.07s.26-1.15,1.06-1.31a2.38,2.38,0,0,1,.59-.07h.26c.06,0,.07,0,.08.06s0,.27.13.72c0,.09,0,.12,0,.13s-.05,0-.07-.08a.74.74,0,0,0-.16-.27.76.76,0,0,0-.76-.19c-.41.08-.51.35-.46.58s.13.35.53.51l.29.12c.8.32,1.09.59,1.19,1.1a1,1,0,0,1-.34,1,1.64,1.64,0,0,1-.83.4A2,2,0,0,1,22.28,8.68Z"/><path class="cls-6" d="M27.48,6.62a10.9,10.9,0,0,0,0,1.1c0,.13.05.24.21.26L28,8c.08,0,.1,0,.1.06s0,0-.12,0H27l-.75,0c-.08,0-.12,0-.12,0s0-.06.1-.06l.17,0c.11,0,.14-.14.15-.29a10.56,10.56,0,0,0,0-1.08l0-2c-.2,0-.52,0-.77,0s-.4.08-.47.27a.84.84,0,0,0,0,.12s0,.08-.06.08-.05,0,0-.1c0-.22.07-.49.1-.69s0-.13.05-.13l.18,0a4.14,4.14,0,0,0,.57,0l2.24,0a1.8,1.8,0,0,0,.32,0l.16,0s.05,0,.05.16,0,.55,0,.68,0,.1-.05.1-.05,0-.06-.09a.51.51,0,0,1,0-.1c0-.16-.1-.29-.41-.3s-.44,0-.83,0Z"/><path class="cls-6" d="M30.5,6c.13-.78.16-.93.17-1.1s0-.24-.14-.28l-.14-.05c-.07,0-.1,0-.09-.07s0,0,.12,0l.74.14.83.12c.08,0,.1,0,.1.07s-.06,0-.11,0h-.15c-.13,0-.19.06-.24.24s-.06.29-.19,1.08L31.24,7c-.06.4-.14.87-.16,1.09a.25.25,0,0,0,.15.29,1,1,0,0,0,.22.06c.09,0,.1,0,.1.07s0,.05-.12,0c-.34,0-.88-.16-.93-.17l-.73-.11c-.08,0-.12,0-.11-.07s.05,0,.11,0h.16c.11,0,.16-.1.2-.24s.13-.58.22-1.07Z"/><path class="cls-6" d="M33.52,8s0,0-.05,0l-.3.34a1.52,1.52,0,0,0-.19.28c0,.1,0,.15.1.2l.16.08c.07,0,.08.06.07.08s-.06,0-.12,0l-.63-.24-.62-.21c-.07,0-.09-.06-.08-.09s.05,0,.11,0l.16,0c.18,0,.33-.09.52-.28L35,5.77c.17-.18.25-.23.3-.21s.07.1.09.3.16,2.47.22,3.32c0,.44.09.59.25.68l.15.07c.06,0,.08.06.07.08s0,0-.14,0l-1.33-.5q-.11,0-.09-.09a.08.08,0,0,1,.09,0c.06,0,.09,0,.09-.06l0-.89a0,0,0,0,0,0,0Zm1.11,0s0,0,0,0l0-1.19s0,0,0,0l-.79.89s0,0,0,0Z"/><path class="cls-6" d="M38.69,7.35c.09-.13.16-.19.21-.16s.05,0,.1.21.15.64.53,2.19l.31,1.35,1-1.61c.15-.25.21-.37.06-.52a1.24,1.24,0,0,0-.18-.14c-.05,0-.06-.08,0-.1s.06,0,.11,0l.61.43.49.31c.07,0,.09.07.07.1s0,0-.1,0a.33.33,0,0,0-.12-.06c-.15-.08-.24,0-.43.22-.61.83-1.18,1.69-1.78,2.53-.14.22-.21.25-.26.21s-.13-.24-.25-.67-.26-1-.36-1.44-.25-1.07-.36-1.58l-.93,1.48c-.2.31-.26.44-.17.56a1.33,1.33,0,0,0,.21.19c.06,0,.07.07,0,.1s-.06,0-.13,0l-.54-.38-.59-.38c-.06,0-.09-.07-.06-.1s.05,0,.11,0a1,1,0,0,0,.15.08c.18.09.27,0,.55-.39C37.61,8.91,38.3,7.88,38.69,7.35Z"/><path class="cls-6" d="M41.84,14.58a.16.16,0,0,1,.07-.19,5.43,5.43,0,0,1,.56-.42c.07,0,.1,0,.11,0s0,0,0,.08a.34.34,0,0,0-.08.09.76.76,0,0,0,0,1c.26.33.49.3.63.19s.22-.25.18-.72l0-.34c0-.67.09-1,.42-1.22a1,1,0,0,1,1.48.34,2.39,2.39,0,0,1,.31.47,2.12,2.12,0,0,1,.11.21s0,.07,0,.09-.2.14-.52.4c-.06,0-.09,0-.12,0s0,0,0-.1a.63.63,0,0,0,.15-.21.75.75,0,0,0-.15-.7c-.24-.3-.49-.26-.64-.15a.56.56,0,0,0-.16.58l0,.31c.08.78,0,1.08-.35,1.36a.92.92,0,0,1-1,.13,1.63,1.63,0,0,1-.66-.54A1.91,1.91,0,0,1,41.84,14.58Z"/><path class="cls-6" d="M44.3,17.34a1.55,1.55,0,0,1,.89-1.12,1.64,1.64,0,0,1,1.37-.06,2.31,2.31,0,0,1,1.11,1.15,4.6,4.6,0,0,1,.26.61,2.07,2.07,0,0,0,.16.42c0,.05,0,.06,0,.07l-.28.13-.49.23q-.09,0-.12,0s0-.07.06-.1a.58.58,0,0,0,.31-.35,1.25,1.25,0,0,0-.18-.95,1,1,0,0,0-.47-.47,1.38,1.38,0,0,0-1.16.15A1.34,1.34,0,0,0,45,18.88c.17.32.3.5.55.57a.89.89,0,0,0,.36,0c.09,0,.11,0,.13,0s0,.05,0,.08-.45.16-.66.23a.19.19,0,0,1-.19,0,2.46,2.46,0,0,1-.45-.65A2.6,2.6,0,0,1,44.3,17.34Z"/><path class="cls-6" d="M48.12,22.82s0,0,0,0l.09,0,.86-.23a.22.22,0,0,0,.17-.25s0-.1,0-.16a.11.11,0,0,1,0-.1s.06,0,.07.08c.07.27.17.71.17.73s.16.58.21.77,0,.09,0,.1-.05,0-.06-.06a.85.85,0,0,0-.06-.13c0-.11-.12-.13-.26-.11a8.68,8.68,0,0,0-.91.21l-.76.2a7.35,7.35,0,0,0-.9.25c-.15.05-.2.11-.19.25s0,.14,0,.19,0,.09,0,.09-.06,0-.07-.08c-.08-.3-.19-.8-.21-.87s-.12-.42-.18-.65,0-.11,0-.11.06,0,.07.07l0,.12c0,.11.13.12.28.09a6.1,6.1,0,0,0,.85-.19l.33-.08s0,0,0,0L47.4,21.6s0,0,0,0l-.46.11c-.42.11-.55.15-.72.21s-.2.12-.18.26,0,.14,0,.18,0,.09,0,.1,0,0-.07-.07c-.06-.25-.2-.85-.2-.87s-.15-.54-.19-.68,0-.1,0-.1.06,0,.08.06a.56.56,0,0,0,0,.12c0,.11.17.13.3.1a9,9,0,0,0,.89-.2l.75-.18a9,9,0,0,0,.9-.25c.14,0,.21-.1.19-.27s0-.09,0-.14,0-.09,0-.09.05,0,.07.08l.17.77.2.72c0,.08,0,.1,0,.11s0,0-.06-.07a1,1,0,0,0-.06-.14c-.06-.12-.17-.11-.28-.09a7.93,7.93,0,0,0-.84.19l-.09,0s0,0,0,0Z"/><path class="cls-6" d="M48.23,25.37a1.77,1.77,0,0,1,1.8,2,1.76,1.76,0,0,1-1.63,1.94,1.79,1.79,0,0,1-1.86-1.91A1.78,1.78,0,0,1,48.23,25.37Zm0,2.91c.68,0,1.56-.27,1.55-1.1,0-.4-.22-.84-1.26-.82-.82,0-1.63.35-1.62,1.12C46.85,27.76,47,28.3,48.18,28.28Z"/><path class="cls-6" d="M48.12,30.59A1.77,1.77,0,0,1,49.34,33a1.75,1.75,0,0,1-2.07,1.45A1.79,1.79,0,0,1,46,32.07,1.78,1.78,0,0,1,48.12,30.59Zm-.81,2.8c.66.16,1.58.14,1.78-.67.1-.38,0-.87-1-1.12-.8-.2-1.67-.07-1.85.67C46.17,32.54,46.14,33.1,47.31,33.39Z"/><path class="cls-6" d="M45.81,36.44a2.57,2.57,0,0,0-.79-.32c-.11,0-.16.09-.33.44a1.32,1.32,0,0,0-.17.48.48.48,0,0,0,.24.43s.07.07.05.1-.05,0-.1,0a3.55,3.55,0,0,1-.57-.41c-.09-.09-.08-.11,0-.27.3-.62.51-1,.73-1.43.09-.2.18-.41.3-.65,0-.06.06-.09.1-.07s0,0,0,.1l0,.1c0,.18,0,.23.37.43l.59.3.71.34.85.4a.21.21,0,0,0,.27,0,1,1,0,0,0,.1-.14s.05-.08.08-.06,0,.06,0,.14c-.12.25-.23.45-.32.62l-.33.72c0,.07-.06.08-.09.07s0-.06,0-.1a.47.47,0,0,0,0-.14c0-.12,0-.19-.16-.27l-.86-.43Z"/><g id="fXn0NT"><path class="cls-2" d="M30.84,18.6a3.19,3.19,0,0,1-.62,2.29c-.32.42-.68.82-1,1.24a4,4,0,0,0-.71,3.08,1.2,1.2,0,0,0,.1.29c2.06-1.37,4-2.72,4.41-5.41a3.17,3.17,0,0,1-.3,2.17c-.34.66-.79,1.25-1.23,1.93.21,0,.41,0,.61,0a7.12,7.12,0,0,1,3.39.49,5.29,5.29,0,0,1,1.18.79A9.09,9.09,0,0,0,34,24.63a5.55,5.55,0,0,0-5.33,2,1.24,1.24,0,0,0-.17.23c-.21.36-.12.51.29.54a10.9,10.9,0,0,1,1.82.19,2.61,2.61,0,0,1,2,2.05c-.78-1.39-2.11-1.6-3.5-1.6a1.94,1.94,0,0,0-2,1.44,3.62,3.62,0,0,0-.14,2.06,2.4,2.4,0,0,1-.25,1.69c-.14.3-.29.6-.48,1a6.41,6.41,0,0,1-.56-2.14,6.13,6.13,0,0,1,1.28-4.79,3.3,3.3,0,0,0,.74-2.22,16.44,16.44,0,0,1,.27-1.94,6.63,6.63,0,0,0,0-1.54,4.77,4.77,0,0,1,.32-2.67A4.68,4.68,0,0,0,29,16.33,1.94,1.94,0,0,1,29.1,18c-.15.4-.34.79-.49,1.19a2.24,2.24,0,0,0,0,1.65c.17.41.4.49.79.28a2.51,2.51,0,0,0,1.05-1.33C30.56,19.46,30.68,19.08,30.84,18.6Zm-3.22,8.69a6.27,6.27,0,0,0-1.42,4.26,13.8,13.8,0,0,1,.42-2.07A19.32,19.32,0,0,1,27.62,27.29Z"/><path class="cls-2" d="M21.52,37.22c-1.07-.71-2.61-.29-3.83,1l.56-1L18.19,37c-.25.06-.51.1-.76.18s-.51.21-.77.29a4.29,4.29,0,0,1,2.92-1c1.21,0,2.41-.07,3.61-.18a4.17,4.17,0,0,0,3.55-2.41,6,6,0,0,0,.73-4.22c-.1-.38.29-.92.82-1.2a5.28,5.28,0,0,1,.56,1.9,7.44,7.44,0,0,1-.68,4c-.52,1-1.11,2-.82,3.23a4,4,0,0,0-3.72,1.13,5.42,5.42,0,0,1,.37-.56,5.38,5.38,0,0,1,.55-.52c.19-.15.39-.28.63-.45-.77,0-1.49,0-2.2.11a5.1,5.1,0,0,0-3,1.42C20.11,37.92,21,37.73,21.52,37.22Zm4.85-1.45a5.74,5.74,0,0,0,2.11-5.1A6.85,6.85,0,0,1,26.37,35.77Z"/><path class="cls-2" d="M22,29.65a2.3,2.3,0,0,1,1.42-1.82,10.37,10.37,0,0,1,1.85-.43c.21,0,.43,0,.64,0s.41-.17.25-.46a3.34,3.34,0,0,0-.36-.48,5.59,5.59,0,0,0-5.89-1.67c-.64.18-1.25.44-1.92.65a7.19,7.19,0,0,1,.87-.61,6.62,6.62,0,0,1,3.28-.65h1.15a4.83,4.83,0,0,1-1.64-4.09c.38,2.69,2.36,4,4.44,5.44a4.2,4.2,0,0,0,0-2,3.64,3.64,0,0,0-.89-1.73c-.26-.32-.54-.63-.79-1a2.81,2.81,0,0,1-.55-2.16,4.5,4.5,0,0,0,.14.49,5.62,5.62,0,0,0,.19.53,2.81,2.81,0,0,0,1,1.37c.46.29.81.2.9-.33a3.93,3.93,0,0,0,0-1.41,8.07,8.07,0,0,0-.51-1.31,2.18,2.18,0,0,1,.08-1.7,5.57,5.57,0,0,0,.65,2.74,4.6,4.6,0,0,1,.23,2.52,5.39,5.39,0,0,0,0,1.39c.09.86.2,1.72.32,2.58.05.31.16.62.21.93A1.78,1.78,0,0,1,27,27s0,0,0,.07c-.23.33-.38.79-.69,1s-.75,0-1.13,0a8.82,8.82,0,0,0-1.27.17A2.66,2.66,0,0,0,22,29.65Z"/><path class="cls-2" d="M27.52,37.45a3.79,3.79,0,0,1,.78-2.76s.06,0,.07,0A4.64,4.64,0,0,0,32,36.4c1.24.07,2.48.09,3.73.16a3.39,3.39,0,0,1,2.2,1l-.46-.19c-.18-.07-.35-.16-.53-.21a4.63,4.63,0,0,0-.52-.07l-.07.1.58,1a2.92,2.92,0,0,0-2.31-1.26,3,3,0,0,0-1.53.26c.53.58,1.42.73,1.59,1.68a4.06,4.06,0,0,0-2.43-1.38,23.16,23.16,0,0,0-2.78-.21A3.61,3.61,0,0,1,31,38.73a10.38,10.38,0,0,0-1.55-.92A11.4,11.4,0,0,0,27.52,37.45Z"/><path class="cls-2" d="M25.17,16.16l-1.93-1.74-.08.09,1.83,2c-1.43.26-2.54-1-2.6-2.8a6.3,6.3,0,0,1,2.16.92A1.56,1.56,0,0,1,25.17,16.16Z"/><path class="cls-2" d="M32.25,13.62c-.2,2-1.13,3.05-2.6,2.89.32-.38.6-.73.9-1.06s.61-.62.92-.93l-.09-.1-2,1.8a2.77,2.77,0,0,1,.17-.94,2.13,2.13,0,0,1,.76-.84A17.5,17.5,0,0,1,32.25,13.62Z"/><path class="cls-2" d="M36.08,23.94l2.83-.18v-.07c-.45,0-.89-.07-1.34-.09s-.91,0-1.35,0a1.4,1.4,0,0,1,1.48-.73,6.85,6.85,0,0,1,2.17.8C38.78,24.94,36.89,25.12,36.08,23.94Z"/><path class="cls-2" d="M14.74,23.67a4.7,4.7,0,0,1,2.69-.76,1.32,1.32,0,0,1,1,.76H15.71v.09l2.76.18C18,25.13,15.84,25,14.74,23.67Z"/><path class="cls-2" d="M35,25.44l1,2.66.11,0-.74-2.61a1.55,1.55,0,0,1,1.16,1.47,5.58,5.58,0,0,1,0,1c0,.35-.09.71-.15,1.07C34.82,28.25,34.09,26.6,35,25.44Z"/><path class="cls-2" d="M23.18,18.73c-1.37.33-2.5-.92-2.59-2.79.92.36,1.92.46,2.54,1.34a1.36,1.36,0,0,1,.24,1.15l-2-1.81-.07.08Z"/><path class="cls-2" d="M31.26,18.41A1.47,1.47,0,0,1,32,16.78c.62-.35,1.31-.58,2-.88.18,1.64-1.15,3.15-2.55,2.83l1.91-2-.08-.08Z"/><path class="cls-2" d="M18.19,29.05a19.12,19.12,0,0,1-.1-2.1,1.56,1.56,0,0,1,1.16-1.52l-.75,2.65.11,0,1-2.64C20.5,26.56,19.84,28.21,18.19,29.05Z"/><path class="cls-2" d="M27.31,13.25c.43.89,1.07,1.69.87,2.77a1.41,1.41,0,0,1-.61.94l-.2-2.76H27.2V17C26,16.4,26.08,14.49,27.31,13.25Z"/><path class="cls-2" d="M33.52,20.43a1.51,1.51,0,0,1,1.68-.78,18.09,18.09,0,0,1,2.15.72c-1.3,1.35-3.05,1.5-3.83.35.5,0,.95-.11,1.41-.14s.93,0,1.39-.06A7.07,7.07,0,0,0,33.52,20.43Z"/><path class="cls-2" d="M21.07,20.41H18.29v.11l2.79.16c-.6,1.2-2.58,1-3.76-.26a5.5,5.5,0,0,1,2.42-.79A1.49,1.49,0,0,1,21.07,20.41Z"/><path class="cls-2" d="M21.74,28.22l-1.6.41a.86.86,0,0,0-.35.19l2.09-.34c-.39,1-1.76,1.21-2.86.48C20,27.94,21.14,27.51,21.74,28.22Z"/><path class="cls-2" d="M30.67,29c.15.34.29.65.41,1s.23.65.34,1l.12,0L31,29c.82.12,1.08,1,.75,2.68A1.84,1.84,0,0,1,30.67,29Z"/><path class="cls-2" d="M35.6,29c-1.15.71-2.37.55-2.9-.49l2.11.34,0-.09-1.94-.51C33.39,27.5,34.64,27.93,35.6,29Z"/><path class="cls-2" d="M23.62,29l-.55,1.92.1,0,.76-2a1.86,1.86,0,0,1-1,2.72C22.49,30.32,22.73,29.05,23.62,29Z"/><path class="cls-2" d="M23.17,25.25c-.07,1.12-1.09,1.69-2.39,1.48.45-1.3,1.36-2,2.16-1.67l-1.43,1,.06.1Z"/><path class="cls-2" d="M31.69,25.06c.77-.38,1.67.36,2.15,1.64a1.78,1.78,0,0,1-2.39-1.44l1.66,1,.06-.08Z"/><path class="cls-2" d="M17.43,26c-.1,1.13-1.09,1.69-2.41,1.48.45-1.28,1.39-2.07,2.17-1.67L15.67,27l.05.09Z"/><path class="cls-2" d="M39.62,27.52c-1.39.2-2.45-.41-2.39-1.46l1.65,1,.06-.08-1.49-1.11C38.15,25.42,39.07,26.19,39.62,27.52Z"/><path class="cls-2" d="M15.83,20.91c1.08.08,1.84.64,1.69,1.26l-1-.81-.06.07,1,.94C16.65,22.64,15.94,22,15.83,20.91Z"/><path class="cls-2" d="M37.17,22.4l1-1-.06-.07-1,.81c-.14-.61.59-1.18,1.67-1.25A1.39,1.39,0,0,1,37.17,22.4Z"/><path class="cls-2" d="M21.26,15l.92.81c-.81.24-1.54-.46-1.59-1.43,1,0,1.75.53,1.68,1.24l-.91-.73Z"/><path class="cls-2" d="M31.31,22.4c-.63.93-1.36,1.19-2.09.7l1.29-.47,0-.09-1.22.29C29.3,22.21,30.31,22,31.31,22.4Z"/><path class="cls-2" d="M25.38,22.85l-1-.27a.34.34,0,0,0-.25.05l1.27.46c-.65.52-1.49.22-2-.67C24.19,22,25.13,22.17,25.38,22.85Z"/><path class="cls-2" d="M20.58,18.63l-1.11-.86,0,.07,1,1c-.72.3-1.44-.38-1.57-1.42C19.77,17.3,20.65,17.92,20.58,18.63Z"/><path class="cls-2" d="M35.14,17.77l-1.1.85c-.19-.7.75-1.17,1.64-1.25a1.41,1.41,0,0,1-1.51,1.53l1-1Z"/><path class="cls-2" d="M25.54,14.66a1.38,1.38,0,0,1-.25-2.15c.73.67,1,1.67.46,2,0-.24-.07-.47-.12-.69a1.72,1.72,0,0,0-.24-.64Z"/><path class="cls-2" d="M29.34,12.49c.56.94.49,1.74-.26,2.18l.14-1.44-.08,0-.29,1.32C28.32,14.19,28.6,13.19,29.34,12.49Z"/><path class="cls-2" d="M33.93,23.81l1-1,0-.05-1.11.85c-.17-.62.63-1.17,1.67-1.26A1.35,1.35,0,0,1,33.93,23.81Z"/><path class="cls-2" d="M20.72,23.81c-.84.18-1.47-.44-1.58-1.45,1,0,1.76.54,1.69,1.23l-1.09-.85-.07.06Z"/><path class="cls-2" d="M34,14.31a1.37,1.37,0,0,1-1.54,1.48c.18-.19.34-.37.51-.53l.53-.47-.06-.08-1.09.84C32.13,15,33,14.35,34,14.31Z"/><path class="cls-2" d="M33,30.2c.64.16.74,1.08.42,1.94a1.37,1.37,0,0,1-.69-2l.5,1.37.08,0Z"/><path class="cls-2" d="M21.34,31.55l.47-1.32c.51.58.2,1.43-.64,1.91-.38-.86-.23-1.63.4-1.95l-.31,1.34Z"/><path class="cls-2" d="M26.92,22.87c-.3-.55,0-1.09.81-1.65a1.24,1.24,0,0,1-.6,1.81c.06-.22.11-.41.17-.59a5.17,5.17,0,0,1,.18-.51l-.09,0Z"/><path class="cls-2" d="M31.74,20.7,30.61,21c.2-.56.74-.68,1.76-.39a1.21,1.21,0,0,1-1.79.64l1.18-.43Z"/><path class="cls-2" d="M22.81,20.77l1.22.44c-.66.42-1.34.17-1.81-.61.82-.36,1.56-.22,1.79.36L23,20.73Z"/><path class="cls-2" d="M27.56,18.72a1.24,1.24,0,0,1-1.33-1.39c.93.11,1.58.63,1.42,1.16l-.87-.73-.06.06Z"/><path class="cls-2" d="M29.38,18.45c.75.66.94,1.27.55,1.76,0-.19-.08-.37-.13-.54a1.07,1.07,0,0,0-.24-.46l.17,1.09C29.06,20.05,28.94,19.34,29.38,18.45Z"/><path class="cls-2" d="M25.24,18.45c.42.87.32,1.51-.35,1.89l.16-1.12-.08,0-.3,1C24.19,19.86,24.59,19,25.24,18.45Z"/></g><path class="cls-4" d="M46.9,53.84a15.79,15.79,0,0,0-3.12-3.67c-2.62-2.27-7.46-5.82-16.33-6-8.87.2-13.71,3.74-16.33,6A15.65,15.65,0,0,0,8,53.84L2.83,49.05A26.29,26.29,0,0,1,7.89,43.8a31.32,31.32,0,0,1,19.56-6.7A31.25,31.25,0,0,1,47,43.81a26.46,26.46,0,0,1,5.06,5.24Z"/><path class="cls-2" d="M8.06,49a0,0,0,0,0,0,0l.09.19a.75.75,0,0,0,.08.14s.06,0,.1,0,.05,0,.07-.05,0,0,0,0,0,0,0,0l-.23.22L8,49.75s0,0,0,0,0,0,0,0l0-.06c.05-.07,0-.16,0-.27l-.59-1.49c0-.1,0-.15,0-.16s.06,0,.15,0,1.08.41,1.46.54c.19.08.27.08.34,0l.06,0s0,0,.05,0,0,0,0,.07-.36.36-.47.47,0,0-.05,0a0,0,0,0,1,0,0s0-.05,0-.06l-.39-.15h0Zm.2-.48s0,0,0,0l-.52-.21h0l.23.51H8Z"/><path class="cls-2" d="M9.39,47a2.78,2.78,0,0,0-.28-.32c0-.06-.09-.07-.14,0l-.07,0s0,0-.05,0,0,0,0-.05l.26-.22.5-.42.08-.09,0,0h0l.06.1.13.18s0,0,0,0,0,0,0,0l-.05-.05s-.08,0-.16,0l-.27.22s0,0,0,0l.3.35h0l.23-.19c.09-.09.11-.11.1-.16s0,0,0,0,0,0,0,0l.1.15.12.14s0,0,0,0,0,0,0,0l0,0s-.09-.05-.18,0l-.24.2s0,0,0,0l.1.12.27.31s.08.06.15,0l.07,0a.06.06,0,0,1,0,0s0,0,0,.06a2.61,2.61,0,0,0-.3.24l-.27.24s0,0-.05,0,0,0,0,0,0,0,0,0,0-.09,0-.17-.12-.15-.25-.31Z"/><path class="cls-2" d="M10.52,46.31a.83.83,0,0,1,.26-1.22.83.83,0,0,1,1.19.1.84.84,0,0,1-.23,1.23A.83.83,0,0,1,10.52,46.31Zm1.13-.77c-.19-.26-.53-.53-.85-.29-.15.11-.26.31,0,.7s.58.53.87.32C11.81,46.19,12,46,11.65,45.54Z"/><path class="cls-2" d="M12.77,44.9c.15.24.24.32.39.33a.53.53,0,0,0,.2-.06.39.39,0,0,0,.15-.18c.06-.15-.06-.34-.18-.52l-.12-.21a3.16,3.16,0,0,0-.23-.35c0-.07-.08-.09-.14-.07l-.07,0h0s0,0,0,0l.26-.16.24-.16a0,0,0,0,1,.06,0s0,0,0,0l-.06,0s0,.07,0,.15.06.1.22.36l.1.17a.78.78,0,0,1,.16.69.81.81,0,0,1-.31.35.78.78,0,0,1-.52.15c-.15,0-.3-.1-.46-.35l-.17-.27c-.17-.28-.19-.33-.23-.38s-.06-.07-.11,0l-.09,0s0,0,0,0,0,0,0,0l.29-.17.31-.2s.05,0,.06,0,0,0,0,0l-.06,0c-.05,0,0,.09,0,.15l.22.36Z"/><path class="cls-2" d="M13.71,43.36c0-.07,0-.1,0-.12a.16.16,0,0,1,.09,0c.13,0,.56.12.9.21l.54.13-.35-.65c-.06-.1-.1-.14-.19-.11l-.08,0s0,0,0,0,0,0,0,0l.29-.14.23-.12s0,0,.05,0,0,0,0,0l0,0c-.06,0-.07.08,0,.21l.55,1.11c0,.1,0,.13,0,.15a1,1,0,0,1-.34,0l-.54-.13-.63-.16.33.59c.07.13.1.18.16.17l.11,0h0s0,0,0,0l-.25.12-.27.14s0,0-.05,0,0,0,0,0l.05,0c.08-.05.07-.1,0-.27Z"/><path class="cls-2" d="M15.82,42.89a2.83,2.83,0,0,0-.17-.38s-.05-.11-.14-.08l-.07,0a0,0,0,0,1,0,0s0,0,0,0l.33-.13.32-.14A1.2,1.2,0,0,1,17,42a.73.73,0,0,1,.4.41.78.78,0,0,1,0,.62,1,1,0,0,1-.59.52c-.11,0-.34.11-.42.15l-.29.13s0,0,0,0,0,0,0,0l.05,0c.09,0,0-.18-.13-.54Zm.47.06c.08.21.14.33.15.36s.07.11.1.13a.35.35,0,0,0,.22,0,.44.44,0,0,0,.29-.26.72.72,0,0,0-.07-.49.82.82,0,0,0-.31-.39.59.59,0,0,0-.53,0l-.1.06s0,0,.15.4Z"/><path class="cls-2" d="M18.09,42.6a0,0,0,0,0,0,0v.13a.42.42,0,0,0,0,.13c0,.07.11,0,.16,0s0,0,0,0,0,0,0,0l-.28.09s-.16.06-.25.09,0,0,0,0,0,0,0,0,.13-.08.15-.24L18,41.51c0-.12,0-.16.05-.17s.05,0,.11.08.7.72.93,1,.18.16.26.15l0,0h0s0,0,0,0l-.59.19s0,0-.05,0,0,0,0,0,0,0,0,0l-.22-.23h0Zm.35-.32h0l-.32-.35s0,0,0,0l0,.46h0Z"/><path class="cls-2" d="M20,41.78c.05.15.1.33.13.42a.12.12,0,0,0,.12.09l.08,0s.05,0,.06,0,0,0-.05,0l-.39.1-.32.1s-.05,0-.05,0,0,0,0,0l.07,0s0-.07,0-.13-.06-.23-.11-.43l-.22-.77-.32.09c-.11,0-.14.08-.15.17v0s0,0,0,0,0,0,0,0l0-.31s0,0,0,0h.07a1,1,0,0,0,.24-.05l.93-.26.12,0,.07,0s0,0,0,.06.05.24.06.29a0,0,0,0,1,0,0,.05.05,0,0,1,0,0,.2.2,0,0,0,0,0c0-.06-.06-.1-.18-.08l-.35.09Z"/><path class="cls-2" d="M20.86,41.18c-.07-.31-.08-.37-.1-.43s0-.09-.09-.08H20.6a0,0,0,0,1-.05,0s0,0,0,0l.32-.07.36-.09s0,0,0,0,0,0,0,0l-.05,0c-.05,0-.07.05-.06.12s0,.12.09.43l.08.36c0,.16.08.35.11.43a.1.1,0,0,0,.11.08h.09s.05,0,.05,0,0,0,0,0l-.4.08-.32.08s-.05,0-.05,0a0,0,0,0,1,0,0l.07,0S21,42,21,42s0-.23-.08-.43Z"/><path class="cls-2" d="M21.74,41.17a.92.92,0,1,1,1.05.64A.83.83,0,0,1,21.74,41.17ZM23.1,41c-.06-.31-.24-.7-.63-.64-.18,0-.37.16-.29.65s.28.73.64.67C23,41.64,23.19,41.54,23.1,41Z"/><path class="cls-2" d="M23.94,40.09c0-.07,0-.1,0-.11l.09,0,.76.53.44.33-.08-.74c0-.11,0-.17-.13-.17H25s0,0,0,0,0,0,0,0l.33,0,.25,0s0,0,0,0,0,0,0,0H25.5c-.07,0-.09,0-.08.18,0,.4,0,.82.08,1.24,0,.12,0,.14,0,.14s-.11,0-.3-.16L24.72,41l-.53-.38.09.67c0,.15,0,.2.09.22h.11s.05,0,.05,0,0,0-.05,0l-.28,0-.31,0s0,0-.05,0,0,0,0,0h.06c.09,0,.1-.07.09-.27C24,40.85,24,40.37,23.94,40.09Z"/><path class="cls-2" d="M26.76,40.42c0-.35,0-.37,0-.43s0-.11-.09-.12h-.08l0,0s0,0,.06,0h1.14s0,0,0,0a.54.54,0,0,0,0,.11c0,.06,0,.12,0,.22s0,0,0,0a0,0,0,0,1,0,0,.17.17,0,0,0,0-.07c0-.05,0-.07-.14-.08h-.35s0,0,0,0v.45s0,0,0,0h.3c.12,0,.15,0,.17-.06l0,0s0,0,0,0,0,.1,0,.18,0,.16,0,.18,0,0,0,0,0,0,0,0v0c0-.07,0-.1-.14-.11h-.33v.16c0,.2,0,.32,0,.41a.11.11,0,0,0,.11.11h.08s0,0,0,0,0,0,0,0h-.75s0,0,0,0,0,0,0,0h.07s.07-.07.07-.16,0-.19,0-.4Z"/><path class="cls-2" d="M28.06,40.59a.83.83,0,0,1,1-.78.82.82,0,0,1,.85.83.92.92,0,0,1-1.83,0Zm1.36.12c0-.32-.07-.74-.47-.76-.18,0-.4.07-.42.56s.11.78.47.8C29.14,41.31,29.4,41.28,29.42,40.71Z"/><path class="cls-2" d="M30.38,40.54a2.94,2.94,0,0,0,0-.42c0-.09,0-.12-.07-.13l-.07,0s0,0,0,0,0,0,.05,0l.33,0L31,40a1.19,1.19,0,0,1,.44.12.35.35,0,0,1,.17.35.53.53,0,0,1-.33.38,5.6,5.6,0,0,0,.33.59c.1.14.14.18.21.19l.06,0a0,0,0,0,1,0,0s0,0,0,0l-.18,0a.85.85,0,0,1-.43-.12.91.91,0,0,1-.17-.28C31,41.1,31,41,30.92,41h0l-.14,0h0l0,.13a2.36,2.36,0,0,0,0,.32c0,.06,0,.1.06.12a.38.38,0,0,0,.1,0s0,0,0,0a.06.06,0,0,1,0,0l-.41-.06-.32,0s0,0,0,0,0,0,0,0h.08s.06,0,.08-.12a3.38,3.38,0,0,0,.06-.42Zm.38.18,0,0a.42.42,0,0,0,.17,0,.22.22,0,0,0,.14,0s.09-.1.1-.24a.32.32,0,0,0-.27-.4h-.08s0,0,0,0Z"/><path class="cls-2" d="M33.46,41.39c0,.16-.07.34-.08.43s0,.11.06.13l.09,0s0,0,0,0h-.06l-.39-.09-.33-.06s0,0,0,0,0,0,0,0h.07c.05,0,.07,0,.09-.1s0-.23.09-.43l.17-.79-.33-.06c-.11,0-.16,0-.2.08l0,0s0,0,0,0,0,0,0,0,.07-.2.11-.29,0,0,0,0l0,0,.24.07.95.19.13,0h.07s0,0,0,.07-.06.24-.07.29,0,0,0,0,0,0,0,0a.09.09,0,0,1,0,0c0-.06,0-.11-.12-.15l-.36-.08Z"/><path class="cls-2" d="M35.52,41.55s0,0,0,0l0,0c.08-.31.09-.34.1-.4s0-.1-.06-.13l-.07,0s0,0,0,0,0,0,0,0l.34.1.36.09s0,0,0,0,0,0,0,0h-.07s-.08,0-.1.08a3.69,3.69,0,0,0-.13.43l-.09.35a3,3,0,0,0-.11.43c0,.07,0,.1.06.13l.08,0s0,0,0,0h-.06l-.4-.12-.31-.08s0,0,0,0,0,0,0,0h.06c.06,0,.08,0,.11-.09s.06-.2.11-.39l0-.16s0,0,0,0l-.62-.16s0,0,0,0l0,.21c-.06.19-.07.26-.09.34a.12.12,0,0,0,.07.14l.08,0,0,0s0,0,0,0l-.4-.11-.32-.08s0,0,0,0,0,0,0,0h.06c.06,0,.09,0,.11-.1l.13-.41.09-.35a3.56,3.56,0,0,0,.11-.42c0-.07,0-.11-.07-.15l-.06,0a0,0,0,0,1,0,0h0l.36.11.34.09s0,0,0,0,0,0,0,0h-.07c-.06,0-.08,0-.1.09a3.35,3.35,0,0,0-.12.39v0a0,0,0,0,0,0,0Z"/><path class="cls-2" d="M36.61,41.87a2.5,2.5,0,0,0,.14-.43c0-.06,0-.09,0-.12l-.06,0s0,0,0,0h0l.3.11.59.21.12,0h0a0,0,0,0,1,0,0l0,.09-.09.21s0,0,0,0,0,0,0,0,0-.05,0-.08,0-.09-.11-.13l-.3-.11s0,0,0,0L37,42s0,0,0,0l.28.1c.12,0,.15,0,.18,0h0s0,0,0,0,0,.1-.08.18l-.07.16s0,0,0,0,0,0,0,0,0,0,0,0,0-.11-.11-.15l-.28-.11h0l0,.15c0,.06-.06.16-.09.24s0,.18.2.26a.59.59,0,0,0,.2,0c.06,0,.1,0,.15-.13s0,0,0,0,0,0,0,0-.11.23-.13.27,0,0-.13,0l-.66-.25-.31-.1s0,0,0,0,0,0,.05,0l.06,0c.07,0,.1-.07.16-.2s.06-.19.1-.3Z"/><path class="cls-2" d="M38.7,42.66c.14-.32.14-.34.17-.4s0-.11,0-.14l-.07,0a.05.05,0,0,1,0,0s0,0,.06,0l.31.15s.57.24.59.26l.12,0h0s0,0,0,0l-.06.1a1.54,1.54,0,0,0-.1.19s0,0,0,0a.06.06,0,0,1,0,0,.19.19,0,0,0,0-.07s0-.09-.09-.14l-.31-.15s0,0,0,0l-.18.42s0,0,0,0l.28.12c.11.05.13.05.18,0h0s0,0,0,0a1.51,1.51,0,0,0-.09.16l-.08.16s0,0,0,0,0,0,0,0v0c0-.07,0-.11-.09-.16L39,43s0,0,0,0l-.06.14-.16.38a.1.1,0,0,0,0,.14l.07,0s0,0,0,0,0,0,0,0-.1-.06-.35-.17l-.33-.14s0,0,0,0,0,0,0,0l.06,0c.06,0,.09,0,.14-.11a2.53,2.53,0,0,0,.17-.36Z"/><path class="cls-2" d="M40.21,43.72c-.13.25-.15.37-.07.51a.34.34,0,0,0,.15.13.39.39,0,0,0,.23,0c.16,0,.26-.24.36-.42l.11-.22c.14-.27.16-.31.19-.38s0-.11,0-.15l-.07-.05a0,0,0,0,1,0,0h0l.27.15.26.13s0,0,0,0,0,0,0,0l-.07,0s-.08,0-.13.08-.06.1-.2.37l-.09.18c-.12.21-.24.43-.51.48a.75.75,0,0,1-.47-.09.77.77,0,0,1-.39-.36.61.61,0,0,1,.07-.58l.15-.28.2-.4a.1.1,0,0,0,0-.12l-.08,0s0,0,0,0,0,0,.06,0l.29.16.33.17s0,0,0,0,0,0-.05,0l-.07,0c-.06,0-.09,0-.13.07l-.2.38Z"/><path class="cls-2" d="M42.22,44.92c-.08.13-.18.29-.22.37a.11.11,0,0,0,0,.15l.07.05s0,0,0,0,0,0-.06,0l-.34-.22-.28-.17s0,0,0,0,0,0,.06,0l.06,0s.08,0,.12-.06l.24-.37.42-.68a2.29,2.29,0,0,0-.28-.17c-.1-.06-.15-.06-.22,0l0,0s0,0,0,0a0,0,0,0,1,0,0l.2-.24s0,0,0,0l.05,0a1.45,1.45,0,0,0,.2.15l.82.51.11.06.07,0s0,0,0,.08l-.17.24s0,0,0,0,0,0,0,0l0-.05c0-.06,0-.11-.06-.18l-.31-.21Z"/><path class="cls-2" d="M43.38,45.62c-.17.23-.21.35-.15.49a.37.37,0,0,0,.13.16.31.31,0,0,0,.22.07c.16,0,.29-.19.42-.36l.14-.2a3,3,0,0,0,.24-.35c0-.07,0-.1,0-.16l-.06-.05s0,0,0,0,0,0,0,0l.24.18.24.16s0,0,0,0,0,0,0,0l-.06,0s-.08,0-.14.06-.07.08-.25.33l-.12.17a.78.78,0,0,1-.57.41.83.83,0,0,1-.45-.15.85.85,0,0,1-.34-.43.59.59,0,0,1,.15-.56l.19-.26c.19-.26.22-.31.26-.37a.09.09,0,0,0,0-.11l-.07-.07s0,0,0,0,0,0,.06,0l.27.2L44,45s0,0,0,0,0,0,0,0L44,45c-.05,0-.09,0-.14.06l-.25.34Z"/><path class="cls-2" d="M44.83,46.31c.21-.25.23-.27.27-.33s0-.11,0-.15l0,0s0,0,0,0,0,0,.05,0l.26.22.28.23a1,1,0,0,1,.31.35.35.35,0,0,1-.06.38.53.53,0,0,1-.48.13,5.16,5.16,0,0,0,0,.67c0,.17,0,.23.07.28s0,0,0,0,0,0,0,.05,0,0,0,0L45.28,48c-.2-.16-.26-.24-.29-.33a.89.89,0,0,1,0-.33c0-.19,0-.27.06-.34s0,0,0,0l-.11-.09s0,0,0,0l-.08.1a3,3,0,0,0-.2.25.11.11,0,0,0,0,.14l.06.07s0,0,0,.05,0,0-.05,0l-.31-.28-.25-.2s0,0,0,0a0,0,0,0,1,0,0l.07,0s.07,0,.13,0,.15-.17.28-.33Zm.22.36s0,0,0,0a.47.47,0,0,0,.12.13.22.22,0,0,0,.13.06s.13,0,.21-.14a.32.32,0,0,0,0-.48l-.06-.05h0Z"/><path class="cls-2" d="M46.2,47.5l.31-.33a.1.1,0,0,0,0-.13l0,0s0,0,0,0,0,0,.05,0l.23.22s.43.41.45.44l.1.08h0s0,0,0,0l-.08.06-.16.16s0,0,0,0a.06.06,0,0,1,0,0s0,0,0-.07,0-.08,0-.16-.18-.18-.23-.23h0l-.31.32a0,0,0,0,0,0,0c.05,0,.15.15.22.2s.11.1.16.09h0s0,0,0,0a1.32,1.32,0,0,0-.14.13l-.13.12s0,0,0,0,0,0,0,0l0,0c0-.05,0-.1,0-.18l-.21-.22h0l-.1.11-.18.18c-.1.11-.1.15.07.32a.52.52,0,0,0,.17.12c.06,0,.11,0,.19,0s0,0,0,0,0,0,0,.05l-.23.2s-.07,0-.12,0l-.51-.5-.24-.23s0,0,0-.05,0,0,.05,0l0,0c.06,0,.12,0,.23-.11l.22-.23Z"/></svg>