<?xml version="1.0" encoding="utf-8"?>
<!-- Generator: Adobe Illustrator 25.4.1, SVG Export Plug-In . SVG Version: 6.00 Build 0)  -->
<svg version="1.1" id="Layer_1" xmlns="http://www.w3.org/2000/svg" xmlns:xlink="http://www.w3.org/1999/xlink" x="0px" y="0px"
	 viewBox="0 0 54.8 60.8" style="enable-background:new 0 0 54.8 60.8;" xml:space="preserve">
<style type="text/css">
	.st0{fill:#EEECD7;}
	.st1{fill:#1C3A68;}
	.st2{fill:#000015;}
	.st3{fill:#F7BA37;}
	.st4{fill:#FFFFFF;}
	.st5{fill:#F8BB38;}
</style>
<g>
	<path class="st0" d="M54.7,55.6c0,0,0-0.1,0-0.1c-0.3-0.6-1-2.6-2.4-4.6c-0.1-0.1-0.2-0.3-0.2-0.4l0.7-0.7c0.4-0.3,0.4-0.9,0.2-1.3
		c-0.1-0.1-0.1-0.1-0.2-0.2c0,0-0.1-0.1-0.1-0.1c-0.5-0.7-2-2.7-5-5.1c-5.8-4.6-12.6-6.9-20.2-6.9c-7.6,0-14.4,2.4-20.2,6.9
		c-3,2.4-4.5,4.4-5,5.1c0,0.1-0.1,0.1-0.1,0.1C2.1,48.3,2,48.4,2,48.5c-0.3,0.4-0.2,1,0.2,1.3l0.7,0.7c-0.1,0.1-0.2,0.2-0.2,0.4
		c-1.3,2-2.1,4-2.4,4.6c0,0.1,0,0.1,0,0.1c-0.1,0.2-0.1,0.4-0.1,0.6c0.1,0.5,0.6,0.9,1.1,0.9c0.1,0,0.1,0,0.2,0
		c1-0.2,2.1-0.4,3.1-0.4c0.5,1.3,1.1,2.5,1.8,3.6c0.2,0.3,0.5,0.5,0.9,0.5c0,0,0.1,0,0.1,0c0.4,0,0.7-0.3,0.9-0.7
		c0.4-1.3,1.7-3.7,3.2-5.5c1.1-1.5,2.3-2.5,2.7-2.9c0.2-0.2,0.5-0.5,0.5-1c0-0.2-0.1-0.3-0.2-0.5c-0.2-0.3-0.4-0.5-0.5-0.8
		c2.9-2,7.1-4.1,13.7-4.3c6.6,0.2,10.9,2.2,13.8,4.3c-0.2,0.3-0.4,0.5-0.5,0.8c-0.1,0.1-0.2,0.3-0.2,0.5c-0.1,0.5,0.3,0.8,0.5,1
		c0.4,0.4,1.6,1.4,2.7,2.9c1.4,1.8,2.7,4.2,3.1,5.5c0.1,0.4,0.5,0.7,0.9,0.7c0,0,0.1,0,0.1,0c0.4,0,0.7-0.2,0.9-0.5
		c0.6-1.2,1.2-2.4,1.8-3.6c1,0.1,2.1,0.2,3.1,0.4c0,0,0.1,0,0.2,0c0.5,0.1,1-0.3,1.1-0.9C54.8,56,54.8,55.8,54.7,55.6z"/>
	<g>
		<path class="st1" d="M1.1,56.1c0,0,0.8-2.2,2.4-4.7c1.5-2.4,3.8-5,5.9-6.3c1.4,1.9,2.7,3.8,4,5.7c0,0-1.5,1.3-3,3.2
			c-1.5,1.9-2.8,4.4-3.3,5.8c-0.7-1.3-1.4-2.7-2-4.2C3.8,55.6,2.5,55.8,1.1,56.1z"/>
		<path class="st2" d="M9.5,44.8c-0.4,2.2-0.6,4.4-0.6,6.5C8.5,52,8.3,52.7,8,53.5c1.8-1.2,3.6-2.1,5.4-2.7
			C12.1,48.8,10.8,46.8,9.5,44.8z"/>
		<path class="st1" d="M53.8,56.1c0,0-0.8-2.2-2.4-4.7c-1.5-2.4-3.8-5-5.9-6.3c-1.4,1.9-2.7,3.8-4,5.7c0,0,1.5,1.3,3,3.2
			c1.5,1.9,2.8,4.4,3.3,5.8c0.7-1.3,1.4-2.7,2-4.2C51.1,55.6,52.4,55.8,53.8,56.1z"/>
		<path class="st2" d="M45.4,44.8c0.4,2.2,0.6,4.4,0.6,6.5c0.3,0.7,0.6,1.5,0.9,2.2c-1.8-1.2-3.6-2.1-5.4-2.7
			C42.8,48.8,44.1,46.8,45.4,44.8z"/>
		<circle class="st1" cx="27.3" cy="27.3" r="27.3"/>
		<g>
			<g>
				<path class="st3" d="M27.3,53.2c-14.4,0-26.1-11.7-26.1-26.1S12.9,1,27.3,1s26.1,11.7,26.1,26.1S41.7,53.2,27.3,53.2z M27.3,1.9
					C13.4,1.9,2.1,13.2,2.1,27.1s11.3,25.2,25.2,25.2S52.5,41,52.5,27.1S41.2,1.9,27.3,1.9z"/>
			</g>
			<g>
				<path class="st4" d="M27.3,43.9c-9.3,0-16.9-7.6-16.9-16.9S18,10.1,27.3,10.1S44.2,17.7,44.2,27S36.6,43.9,27.3,43.9z
					 M27.3,10.6c-9,0-16.4,7.3-16.4,16.4c0,9,7.3,16.4,16.4,16.4S43.7,36,43.7,27C43.7,18,36.3,10.6,27.3,10.6z"/>
			</g>
			<circle class="st4" cx="27.3" cy="27" r="15.6"/>
			<g>
				<polygon class="st4" points="27.3,48.2 27.7,49.1 28.7,49.1 27.9,49.7 28.2,50.7 27.3,50.1 26.5,50.7 26.8,49.7 26,49.1 
					27,49.1 				"/>
				<polygon class="st4" points="31.7,47.6 32.2,48.1 32.9,47.8 32.6,48.5 33.1,49.1 32.3,48.9 31.9,49.6 31.8,48.8 31.1,48.6 
					31.8,48.3 				"/>
				<polygon class="st4" points="35.7,46.4 36.3,46.7 36.8,46.3 36.7,47 37.3,47.3 36.6,47.4 36.4,48 36.2,47.4 35.5,47.5 36,47 
									"/>
				<polygon class="st4" points="23,47.8 22.4,48.3 21.7,48 22.1,48.7 21.6,49.3 22.4,49.1 22.8,49.8 22.8,49 23.6,48.8 22.9,48.5 
									"/>
				<polygon class="st4" points="18.9,46 18.4,46.4 17.8,46 18,46.6 17.4,47 18.1,47 18.3,47.7 18.5,47.1 19.2,47.1 18.7,46.7 				
					"/>
			</g>
			<g>
				<path class="st5" d="M8.3,35.8c0.5-0.2,0.8-0.3,0.9-0.5c0.1-0.1,0-0.2-0.1-0.6c-0.1-0.3-0.2-0.4-0.3-0.5
					c-0.1-0.1-0.3-0.1-0.5-0.1c-0.1,0-0.1,0-0.1,0c0,0,0,0,0.1-0.1c0.1,0,0.6-0.2,0.7-0.2c0.1,0,0.2,0,0.2,0.2
					c0.3,0.6,0.4,1.1,0.7,1.6c0.1,0.2,0.2,0.5,0.3,0.7c0,0.1,0,0.1,0,0.1c0,0-0.1,0-0.1-0.1c0-0.1-0.1-0.1-0.1-0.2
					c-0.1-0.2-0.2-0.1-0.6,0c-0.2,0.1-0.5,0.2-0.8,0.3L7.8,37c-0.8,0.3-0.9,0.4-1,0.5c-0.1,0.1-0.2,0.1-0.2,0.3c0,0,0,0.1,0.1,0.2
					c0,0.1,0,0.1,0,0.1s-0.1,0-0.1-0.1c-0.1-0.3-0.2-0.5-0.3-0.7c0,0-0.3-0.6-0.4-0.8c0-0.1,0-0.1,0-0.1c0,0,0.1,0,0.1,0.1
					c0,0,0,0.1,0.1,0.2c0.1,0.1,0.2,0.1,0.4,0c0.2-0.1,0.3-0.1,1-0.4L8.3,35.8z"/>
				<path class="st5" d="M6.8,33.4c-1,0.2-2.1-0.3-2.4-1.8c-0.2-1.3,0.5-2.2,1.5-2.4c1.2-0.2,2.2,0.4,2.5,1.7
					C8.7,32.4,7.7,33.2,6.8,33.4z M6.3,30.1c-0.8,0.2-1.7,0.7-1.6,1.6c0.1,0.5,0.4,0.9,1.6,0.7c1-0.2,1.8-0.7,1.6-1.6
					C8,30.5,7.7,29.9,6.3,30.1z"/>
				<path class="st5" d="M7.7,25.8c0-0.6-0.1-0.8-0.3-0.9c-0.1,0-0.1,0-0.2-0.1c-0.1,0-0.1,0-0.1-0.1c0,0,0,0,0.1,0
					c0.1,0,0.6,0.1,0.8,0.2c0.1,0,0.1,0,0.1,0.1c0,0.9-0.1,1.7-0.2,2.9c0,0.1,0,0.1-0.1,0.1c0,0-0.1,0-0.2-0.1
					c-1-0.7-2.1-1.5-3.2-2.2l0,0.9c0,0.4,0,0.6,0.1,0.7c0.1,0.1,0.2,0.2,0.4,0.3c0.1,0,0.1,0,0.1,0.1c0,0,0,0-0.1,0
					c-0.1,0-0.6-0.1-0.8-0.2c-0.1,0-0.1,0-0.1-0.1c0,0,0-0.1,0-0.2c0-0.5,0.1-0.7,0.1-1l0.1-1.7c0-0.1,0-0.1,0.1-0.1
					c0,0,0.1,0,0.1,0.1c1.1,0.7,2.2,1.5,3.2,2.2L7.7,25.8z"/>
				<path class="st5" d="M6.1,23c-0.8-0.2-0.9-0.2-1.1-0.2c-0.1,0-0.2,0-0.3,0.1c0,0,0,0.1-0.1,0.1c0,0.1,0,0.1-0.1,0.1
					c0,0,0,0,0-0.1c0-0.2,0.2-0.7,0.2-0.7c0,0,0.1-0.6,0.2-0.8c0-0.1,0-0.1,0.1-0.1c0,0,0,0.1,0,0.1c0,0.1,0,0.1,0,0.1
					c0,0.1,0,0.2,0.2,0.3c0.2,0.1,0.3,0.1,1.1,0.3l0.9,0.2c0.4,0.1,0.9,0.2,1.1,0.2c0.1,0,0.2,0,0.3-0.1c0-0.1,0.1-0.2,0.1-0.2
					c0-0.1,0-0.1,0.1-0.1c0,0,0,0,0,0.1c-0.1,0.3-0.2,0.9-0.2,0.9c0,0-0.1,0.6-0.1,0.7c0,0.1,0,0.1-0.1,0.1c0,0,0-0.1,0-0.1
					c0-0.1,0-0.1,0-0.2c0-0.1-0.1-0.2-0.2-0.2c-0.2-0.1-0.6-0.2-1.1-0.3L6.1,23z"/>
				<path class="st5" d="M9.5,18.7c-0.6,0.2-1.2,0.1-1.6-0.2c-0.3-0.2-0.8-0.6-0.9-1.3c-0.1-0.6,0-1.1,0.4-1.7
					c0.1-0.3,0.3-0.4,0.4-0.6C7.9,14.8,8,14.7,8,14.5c0,0,0.1,0,0.1,0c0,0,0.1,0.1,0.3,0.2c0.1,0.1,0.4,0.2,0.5,0.3
					C9,15.1,9,15.1,9,15.1c0,0-0.1,0-0.1,0C8.8,15.1,8.6,15,8.3,15c-0.3,0.1-0.5,0.3-0.8,0.7c-0.1,0.3-0.2,0.5-0.2,0.8
					c0.1,0.4,0.4,0.8,0.9,1c0.9,0.5,1.8,0.4,2.2-0.4c0.2-0.4,0.3-0.6,0.2-0.9c0-0.1-0.1-0.2-0.2-0.3c-0.1-0.1-0.1-0.1-0.1-0.1
					c0,0,0.1,0,0.1,0c0.1,0,0.4,0.3,0.6,0.5c0.1,0,0.1,0.1,0.1,0.2c0,0.2-0.2,0.5-0.3,0.8C10.6,18,10.2,18.5,9.5,18.7z"/>
				<path class="st5" d="M12.3,11.9C12.3,11.9,12.3,11.9,12.3,11.9l-0.1-0.1c-0.6-0.6-0.6-0.6-0.8-0.7c-0.1-0.1-0.2-0.1-0.3,0
					c0,0-0.1,0.1-0.1,0.1c-0.1,0.1-0.1,0-0.1,0c0,0,0-0.1,0-0.1c0.2-0.2,0.5-0.5,0.6-0.6c0,0,0.4-0.5,0.6-0.6c0.1-0.1,0.1-0.1,0.1,0
					c0,0,0,0.1,0,0.1C12.1,10,12.1,10,12,10.1c-0.1,0.1,0,0.2,0.1,0.3c0.1,0.1,0.2,0.2,0.8,0.8l0.7,0.6c0.4,0.3,0.6,0.6,0.8,0.7
					c0.1,0.1,0.2,0.1,0.4,0c0.1,0,0.1-0.1,0.2-0.1c0,0,0.1,0,0.1,0c0,0,0,0.1,0,0.1c-0.2,0.3-0.6,0.6-0.7,0.7
					c-0.1,0.1-0.3,0.4-0.5,0.5c-0.1,0.1-0.1,0.1-0.1,0c0,0,0-0.1,0-0.1c0,0,0.1-0.1,0.1-0.1c0.1-0.1,0-0.2-0.1-0.3
					c-0.1-0.2-0.4-0.4-0.7-0.7l-0.3-0.3c0,0,0,0,0,0l-1.1,1.2c0,0,0,0,0,0l0.4,0.4c0.4,0.3,0.5,0.5,0.7,0.6c0.1,0.1,0.2,0.1,0.3,0
					c0.1-0.1,0.1-0.1,0.2-0.1c0,0,0.1-0.1,0.1,0c0,0,0,0.1,0,0.1c-0.2,0.2-0.6,0.6-0.7,0.7c0,0-0.4,0.4-0.5,0.6c0,0-0.1,0.1-0.1,0
					c0,0,0-0.1,0-0.1c0,0,0.1-0.1,0.1-0.1c0.1-0.1,0-0.2-0.1-0.3c-0.1-0.2-0.4-0.4-0.8-0.8l-0.6-0.6c-0.6-0.6-0.7-0.6-0.8-0.7
					c-0.1-0.1-0.2-0.1-0.4,0c0,0-0.1,0.1-0.1,0.1c-0.1,0.1-0.1,0.1-0.1,0c0,0,0-0.1,0-0.1c0.2-0.2,0.5-0.5,0.6-0.6
					c0.1-0.1,0.4-0.5,0.6-0.6c0.1-0.1,0.1-0.1,0.1,0c0,0,0,0.1,0,0.1c0,0-0.1,0.1-0.1,0.1c-0.1,0.1,0,0.2,0.1,0.3
					c0.1,0.1,0.3,0.3,0.7,0.7l0.1,0.1c0,0,0,0,0,0L12.3,11.9z"/>
				<path class="st5" d="M14.8,9.6c-0.4-0.7-0.5-0.8-0.6-0.9c-0.1-0.2-0.2-0.2-0.3-0.2c-0.1,0-0.1,0.1-0.2,0.1c-0.1,0-0.1,0-0.1,0
					c0,0,0-0.1,0.1-0.1c0.2-0.1,0.6-0.4,0.7-0.4c0.1-0.1,0.5-0.3,0.7-0.4c0.4-0.3,0.7-0.4,1-0.4c0.3,0,0.6,0.1,0.8,0.4
					c0.2,0.4,0.2,0.8,0,1.2c0.5,0.2,1.1,0.5,1.6,0.6c0.4,0.1,0.5,0.1,0.7,0.1c0.1,0,0.1,0,0.1-0.1c0,0,0.1,0,0.1,0
					c0,0,0,0.1-0.1,0.1L18.9,10c-0.5,0.3-0.7,0.4-0.9,0.3c-0.2,0-0.4-0.1-0.8-0.3c-0.4-0.2-0.6-0.3-0.8-0.4c0,0,0,0-0.1,0L16,9.8
					c0,0,0,0,0,0.1l0.1,0.2c0.2,0.3,0.3,0.6,0.5,0.7c0.1,0.1,0.2,0.2,0.3,0.1c0.1,0,0.1-0.1,0.2-0.1c0.1,0,0.1,0,0.1,0
					c0,0,0,0.1-0.1,0.1c-0.3,0.2-0.8,0.5-0.8,0.5c-0.1,0-0.5,0.3-0.6,0.4c-0.1,0-0.1,0-0.1,0c0,0,0-0.1,0.1-0.1c0,0,0.1-0.1,0.1-0.1
					c0.1-0.1,0.1-0.2,0-0.3c-0.1-0.2-0.3-0.5-0.5-0.9L14.8,9.6z M15.8,9.4C15.8,9.5,15.8,9.5,15.8,9.4c0.2,0,0.3,0,0.5-0.1
					c0.1-0.1,0.2-0.1,0.2-0.2c0-0.1,0-0.4-0.2-0.7c-0.4-0.6-0.9-0.5-1.1-0.4c-0.1,0-0.1,0.1-0.2,0.1c0,0,0,0,0,0.1L15.8,9.4z"/>
				<path class="st5" d="M19.2,7.3c-0.3-0.7-0.3-0.9-0.4-1c-0.1-0.1-0.1-0.2-0.3-0.2c0,0-0.1,0-0.2,0c-0.1,0-0.1,0-0.1,0
					c0,0,0-0.1,0.1-0.1C18.5,5.9,19,5.8,19,5.8c0,0,0.6-0.2,0.8-0.3c0.1,0,0.1,0,0.1,0c0,0,0,0.1-0.1,0.1c0,0-0.1,0-0.1,0.1
					c-0.1,0.1-0.1,0.2-0.1,0.3c0,0.2,0.1,0.3,0.4,1l0.3,0.8c0.1,0.4,0.3,0.8,0.4,1C20.8,9,20.9,9,21,9c0.1,0,0.2,0,0.2-0.1
					c0.1,0,0.1,0,0.1,0c0,0,0,0.1-0.1,0.1c-0.3,0.1-0.8,0.3-0.9,0.3c0,0-0.5,0.2-0.7,0.3c-0.1,0-0.1,0-0.1,0c0,0,0-0.1,0.1-0.1
					c0,0,0.1,0,0.1-0.1c0.1-0.1,0.1-0.2,0.1-0.3c-0.1-0.2-0.2-0.6-0.4-1L19.2,7.3z"/>
				<path class="st5" d="M22.3,8.7c-0.1,0-0.1-0.1-0.2-0.2C22,8.1,22,7.9,22,7.8c0-0.1,0-0.1,0-0.1c0,0,0,0,0.1,0.1
					c0,0,0,0.1,0.1,0.2c0.2,0.4,0.6,0.6,1,0.5c0.5-0.1,0.6-0.4,0.5-0.6c0-0.2-0.1-0.4-0.6-0.6L22.7,7c-0.7-0.3-1-0.6-1-1.1
					c-0.1-0.6,0.3-1.1,1.1-1.3c0.2,0,0.4-0.1,0.6-0.1c0.1,0,0.2,0,0.3,0c0.1,0,0.1,0,0.1,0.1c0,0.2,0,0.3,0.1,0.7c0,0.1,0,0.1,0,0.1
					c0,0,0,0-0.1-0.1c0,0-0.1-0.2-0.2-0.3c-0.1-0.1-0.4-0.3-0.8-0.2c-0.4,0.1-0.5,0.3-0.5,0.6c0,0.2,0.1,0.4,0.5,0.5l0.3,0.1
					c0.8,0.3,1.1,0.6,1.2,1.1c0.1,0.3,0,0.7-0.3,1c-0.3,0.2-0.6,0.3-0.8,0.4C22.8,8.7,22.5,8.7,22.3,8.7z"/>
				<path class="st5" d="M27.5,6.6c0,0.4,0,0.9,0,1.1c0,0.1,0.1,0.2,0.2,0.3c0.1,0,0.1,0,0.2,0c0.1,0,0.1,0,0.1,0.1c0,0,0,0-0.1,0
					c-0.3,0-0.8,0-0.9,0c-0.1,0-0.6,0-0.8,0c-0.1,0-0.1,0-0.1,0c0,0,0-0.1,0.1-0.1c0.1,0,0.1,0,0.2,0c0.1,0,0.1-0.1,0.2-0.3
					c0-0.2,0-0.6,0-1.1l0-2c-0.2,0-0.5,0-0.8,0c-0.3,0-0.4,0.1-0.5,0.3c0,0.1,0,0.1,0,0.1c0,0,0,0.1-0.1,0.1c0,0,0,0,0-0.1
					c0-0.2,0.1-0.5,0.1-0.7c0-0.1,0-0.1,0.1-0.1c0,0,0.1,0,0.2,0c0.1,0,0.4,0,0.6,0l2.2,0c0.2,0,0.3,0,0.3,0c0.1,0,0.1,0,0.2,0
					c0,0,0.1,0,0.1,0.2c0,0.1,0,0.6,0,0.7c0,0.1,0,0.1,0,0.1c0,0-0.1,0-0.1-0.1c0-0.1,0-0.1,0-0.1c0-0.2-0.1-0.3-0.4-0.3
					c-0.2,0-0.4,0-0.8,0L27.5,6.6z"/>
				<path class="st5" d="M30.5,6c0.1-0.8,0.2-0.9,0.2-1.1c0-0.1,0-0.2-0.1-0.3c0,0-0.1,0-0.1,0c-0.1,0-0.1,0-0.1-0.1c0,0,0,0,0.1,0
					c0.2,0,0.7,0.1,0.7,0.1c0,0,0.6,0.1,0.8,0.1c0.1,0,0.1,0,0.1,0.1c0,0-0.1,0-0.1,0c-0.1,0-0.1,0-0.1,0c-0.1,0-0.2,0.1-0.2,0.2
					c0,0.2-0.1,0.3-0.2,1.1L31.2,7c-0.1,0.4-0.1,0.9-0.2,1.1c0,0.1,0,0.2,0.1,0.3c0.1,0,0.2,0,0.2,0.1c0.1,0,0.1,0,0.1,0.1
					c0,0,0,0-0.1,0c-0.3-0.1-0.9-0.2-0.9-0.2c0,0-0.6-0.1-0.7-0.1c-0.1,0-0.1,0-0.1-0.1c0,0,0,0,0.1,0c0.1,0,0.1,0,0.2,0
					c0.1,0,0.2-0.1,0.2-0.2c0.1-0.2,0.1-0.6,0.2-1.1L30.5,6z"/>
				<path class="st5" d="M33.5,8C33.5,8,33.5,8,33.5,8l-0.4,0.4C33.1,8.5,33,8.6,33,8.6c0,0.1,0,0.2,0.1,0.2c0,0,0.1,0.1,0.2,0.1
					c0.1,0,0.1,0.1,0.1,0.1c0,0-0.1,0-0.1,0c-0.2-0.1-0.4-0.2-0.6-0.2c-0.1,0-0.4-0.1-0.6-0.2c-0.1,0-0.1-0.1-0.1-0.1
					c0,0,0.1,0,0.1,0c0.1,0,0.1,0,0.2,0c0.2,0,0.3-0.1,0.5-0.3L35,5.8c0.2-0.2,0.2-0.2,0.3-0.2c0,0,0.1,0.1,0.1,0.3
					c0,0.3,0.2,2.5,0.2,3.3c0,0.4,0.1,0.6,0.3,0.7c0,0,0.1,0.1,0.1,0.1c0.1,0,0.1,0.1,0.1,0.1c0,0-0.1,0-0.1,0
					c-0.5-0.2-1-0.4-1.3-0.5c-0.1,0-0.1-0.1-0.1-0.1c0,0,0,0,0.1,0c0.1,0,0.1,0,0.1-0.1l0-0.9c0,0,0,0,0,0L33.5,8z M34.6,8
					C34.7,8,34.7,8,34.6,8l0-1.2c0,0,0,0,0,0l-0.8,0.9c0,0,0,0,0,0L34.6,8z"/>
				<path class="st5" d="M38.7,7.3c0.1-0.1,0.2-0.2,0.2-0.2c0,0,0,0.1,0.1,0.2c0.1,0.3,0.2,0.6,0.5,2.2c0.2,0.7,0.3,1.2,0.3,1.4
					l1-1.6C41,9.1,41.1,9,40.9,8.8c-0.1-0.1-0.1-0.1-0.2-0.1c-0.1,0-0.1-0.1,0-0.1c0,0,0.1,0,0.1,0C41,8.7,41.3,8.9,41.4,9
					c0.1,0.1,0.3,0.2,0.5,0.3C42,9.4,42,9.4,42,9.4c0,0-0.1,0-0.1,0c-0.1,0-0.1,0-0.1-0.1c-0.2-0.1-0.2,0-0.4,0.2
					c-0.6,0.8-1.2,1.7-1.8,2.5c-0.1,0.2-0.2,0.2-0.3,0.2c-0.1,0-0.1-0.2-0.2-0.7c-0.1-0.4-0.3-1-0.4-1.4c-0.1-0.4-0.2-1.1-0.4-1.6
					l-0.9,1.5c-0.2,0.3-0.3,0.4-0.2,0.6c0,0.1,0.1,0.1,0.2,0.2c0.1,0,0.1,0.1,0.1,0.1c0,0-0.1,0-0.1,0c-0.1-0.1-0.3-0.2-0.5-0.4
					c-0.1-0.1-0.4-0.3-0.6-0.4c-0.1,0-0.1-0.1-0.1-0.1c0,0,0,0,0.1,0c0,0,0.1,0.1,0.1,0.1c0.2,0.1,0.3,0,0.6-0.4
					C37.6,8.9,38.3,7.9,38.7,7.3z"/>
				<path class="st5" d="M41.8,14.6c0-0.1,0-0.1,0.1-0.2c0.3-0.2,0.4-0.3,0.6-0.4c0.1,0,0.1,0,0.1,0c0,0,0,0,0,0.1
					c0,0-0.1,0.1-0.1,0.1c-0.3,0.3-0.2,0.7,0,1c0.3,0.3,0.5,0.3,0.6,0.2c0.1-0.1,0.2-0.3,0.2-0.7l0-0.3c0-0.7,0.1-1,0.4-1.2
					c0.4-0.3,1-0.2,1.5,0.3c0.1,0.2,0.2,0.3,0.3,0.5c0,0.1,0.1,0.1,0.1,0.2c0,0,0,0.1,0,0.1c-0.1,0.1-0.2,0.1-0.5,0.4
					c-0.1,0-0.1,0.1-0.1,0c0,0,0,0,0-0.1c0,0,0.1-0.1,0.1-0.2c0.1-0.2,0-0.5-0.2-0.7c-0.2-0.3-0.5-0.3-0.6-0.1
					c-0.2,0.1-0.2,0.3-0.2,0.6l0,0.3c0.1,0.8,0,1.1-0.3,1.4c-0.3,0.2-0.6,0.3-1,0.1c-0.3-0.1-0.5-0.4-0.7-0.5
					C42,15,41.9,14.8,41.8,14.6z"/>
				<path class="st5" d="M44.3,17.3c0.1-0.6,0.5-0.9,0.9-1.1c0.3-0.1,0.8-0.3,1.4-0.1c0.5,0.2,0.8,0.6,1.1,1.2
					c0.1,0.2,0.2,0.4,0.3,0.6c0.1,0.2,0.1,0.3,0.2,0.4c0,0,0,0.1,0,0.1c0,0-0.2,0.1-0.3,0.1c-0.1,0.1-0.4,0.2-0.5,0.2
					c-0.1,0-0.1,0-0.1,0c0,0,0-0.1,0.1-0.1c0.1,0,0.2-0.1,0.3-0.4c0.1-0.2,0-0.5-0.2-0.9c-0.1-0.2-0.3-0.4-0.5-0.5
					c-0.3-0.1-0.7-0.1-1.2,0.2c-0.8,0.4-1.1,1.1-0.8,1.8c0.2,0.3,0.3,0.5,0.6,0.6c0.1,0,0.2,0,0.4,0c0.1,0,0.1,0,0.1,0
					c0,0,0,0.1,0,0.1c-0.1,0-0.5,0.2-0.7,0.2c-0.1,0-0.1,0-0.2,0c-0.1-0.1-0.3-0.4-0.5-0.7C44.4,18.5,44.2,18,44.3,17.3z"/>
				<path class="st5" d="M48.1,22.8C48.1,22.8,48.1,22.8,48.1,22.8l0.1,0c0.7-0.2,0.7-0.2,0.9-0.2c0.1,0,0.2-0.1,0.2-0.2
					c0,0,0-0.1,0-0.2c0-0.1,0-0.1,0-0.1c0,0,0.1,0,0.1,0.1c0.1,0.3,0.2,0.7,0.2,0.7c0,0,0.2,0.6,0.2,0.8c0,0.1,0,0.1,0,0.1
					c0,0-0.1,0-0.1-0.1c0-0.1,0-0.1-0.1-0.1c0-0.1-0.1-0.1-0.3-0.1c-0.1,0-0.2,0-0.9,0.2l-0.8,0.2c-0.4,0.1-0.7,0.2-0.9,0.3
					c-0.1,0.1-0.2,0.1-0.2,0.2c0,0.1,0,0.1,0,0.2c0,0.1,0,0.1,0,0.1c0,0-0.1,0-0.1-0.1c-0.1-0.3-0.2-0.8-0.2-0.9
					c0-0.1-0.1-0.4-0.2-0.7c0-0.1,0-0.1,0-0.1c0,0,0.1,0,0.1,0.1c0,0.1,0,0.1,0,0.1c0,0.1,0.1,0.1,0.3,0.1c0.2,0,0.4-0.1,0.9-0.2
					l0.3-0.1c0,0,0,0,0,0l-0.3-1.3c0,0,0,0,0,0l-0.5,0.1c-0.4,0.1-0.5,0.1-0.7,0.2c-0.1,0-0.2,0.1-0.2,0.3c0,0.1,0,0.1,0,0.2
					c0,0.1,0,0.1,0,0.1c0,0,0,0-0.1-0.1c-0.1-0.2-0.2-0.8-0.2-0.9c0,0-0.2-0.5-0.2-0.7c0,0,0-0.1,0-0.1c0,0,0.1,0,0.1,0.1
					c0,0,0,0.1,0,0.1c0,0.1,0.2,0.1,0.3,0.1c0.2,0,0.5-0.1,0.9-0.2l0.7-0.2c0.7-0.2,0.8-0.2,0.9-0.2c0.1,0,0.2-0.1,0.2-0.3
					c0-0.1,0-0.1,0-0.1c0-0.1,0-0.1,0-0.1c0,0,0.1,0,0.1,0.1c0.1,0.3,0.2,0.7,0.2,0.8c0,0.2,0.1,0.5,0.2,0.7c0,0.1,0,0.1,0,0.1
					c0,0,0,0-0.1-0.1c0-0.1,0-0.1-0.1-0.1c-0.1-0.1-0.2-0.1-0.3-0.1c-0.1,0-0.3,0.1-0.8,0.2l-0.1,0c0,0,0,0,0,0L48.1,22.8z"/>
				<path class="st5" d="M48.2,25.4c0.9,0,1.8,0.6,1.8,2c0,1.2-0.8,1.9-1.6,1.9c-1,0-1.8-0.7-1.9-1.9C46.5,26,47.4,25.4,48.2,25.4z
					 M48.2,28.3c0.7,0,1.6-0.3,1.5-1.1c0-0.4-0.2-0.8-1.3-0.8c-0.8,0-1.6,0.4-1.6,1.1C46.9,27.8,47,28.3,48.2,28.3z"/>
				<path class="st5" d="M48.1,30.6c0.9,0.2,1.6,1,1.2,2.4c-0.3,1.1-1.2,1.7-2.1,1.4c-1-0.3-1.6-1.1-1.3-2.3
					C46.3,30.7,47.4,30.4,48.1,30.6z M47.3,33.4c0.7,0.2,1.6,0.1,1.8-0.7c0.1-0.4,0-0.9-1-1.1c-0.8-0.2-1.7-0.1-1.9,0.7
					C46.2,32.5,46.1,33.1,47.3,33.4z"/>
				<path class="st5" d="M45.8,36.4c-0.4-0.2-0.7-0.3-0.8-0.3c-0.1,0-0.2,0.1-0.3,0.4c-0.1,0.2-0.2,0.3-0.2,0.5c0,0.1,0,0.3,0.2,0.4
					c0,0,0.1,0.1,0.1,0.1c0,0,0,0-0.1,0c-0.1,0-0.5-0.3-0.6-0.4c-0.1-0.1-0.1-0.1,0-0.3c0.3-0.6,0.5-1,0.7-1.4
					c0.1-0.2,0.2-0.4,0.3-0.6c0-0.1,0.1-0.1,0.1-0.1c0,0,0,0,0,0.1c0,0,0,0.1,0,0.1c-0.1,0.2,0,0.2,0.4,0.4c0.2,0.1,0.4,0.2,0.6,0.3
					l0.7,0.3c0.7,0.3,0.7,0.3,0.8,0.4c0.1,0,0.2,0,0.3,0c0,0,0.1-0.1,0.1-0.1c0,0,0.1-0.1,0.1-0.1c0,0,0,0.1,0,0.1
					c-0.1,0.3-0.2,0.4-0.3,0.6c0,0-0.3,0.6-0.3,0.7c0,0.1-0.1,0.1-0.1,0.1c0,0,0-0.1,0-0.1c0,0,0-0.1,0-0.1c0-0.1,0-0.2-0.2-0.3
					c-0.1-0.1-0.2-0.1-0.9-0.4L45.8,36.4z"/>
			</g>
			<g id="fXn0NT_00000176742477692515052650000003118964784739036053_">
				<g>
					<path class="st1" d="M30.8,18.6c0.1,0.9-0.1,1.6-0.6,2.3c-0.3,0.4-0.7,0.8-1,1.2c-0.7,0.9-0.8,2-0.7,3.1c0,0.1,0,0.1,0.1,0.3
						c2.1-1.4,4-2.7,4.4-5.4c0.2,0.8,0,1.5-0.3,2.2c-0.3,0.7-0.8,1.3-1.2,1.9c0.2,0,0.4,0,0.6,0c1.2-0.1,2.3,0,3.4,0.5
						c0.4,0.2,0.8,0.5,1.2,0.8C35.8,25,35,24.8,34,24.6c-2.2-0.4-3.9,0.4-5.3,2c-0.1,0.1-0.1,0.1-0.2,0.2c-0.2,0.4-0.1,0.5,0.3,0.5
						c0.6,0.1,1.2,0,1.8,0.2c1.1,0.3,1.8,0.9,2,2c-0.8-1.4-2.1-1.6-3.5-1.6c-1,0-1.6,0.5-2,1.4c-0.2,0.7-0.3,1.4-0.1,2.1
						c0.2,0.6,0,1.2-0.3,1.7c-0.1,0.3-0.3,0.6-0.5,1c-0.4-0.7-0.5-1.4-0.6-2.1c-0.2-1.8,0.2-3.4,1.3-4.8c0.5-0.7,0.8-1.4,0.7-2.2
						c0-0.6,0.2-1.3,0.3-1.9c0.1-0.5,0.1-1,0-1.5c-0.1-0.9-0.1-1.8,0.3-2.7c0.4-0.8,0.7-1.6,0.5-2.6c0.3,0.5,0.3,1.1,0.1,1.7
						c-0.2,0.4-0.3,0.8-0.5,1.2c-0.2,0.5-0.3,1.1,0,1.6c0.2,0.4,0.4,0.5,0.8,0.3c0.5-0.3,0.8-0.8,1.1-1.3
						C30.6,19.5,30.7,19.1,30.8,18.6z M27.6,27.3c-1,1.4-1.6,2.8-1.4,4.3c0.1-0.5,0.2-1.3,0.4-2.1C26.9,28.7,27.3,28,27.6,27.3z"/>
					<path class="st1" d="M21.5,37.2c-1.1-0.7-2.6-0.3-3.8,1c0.2-0.3,0.4-0.7,0.6-1c0,0,0-0.1-0.1-0.1c-0.3,0.1-0.5,0.1-0.8,0.2
						c-0.3,0.1-0.5,0.2-0.8,0.3c0.8-0.8,1.9-1,2.9-1c1.2-0.1,2.4-0.1,3.6-0.2c1.6-0.1,2.8-1,3.5-2.4c0.7-1.3,1.1-2.7,0.7-4.2
						c-0.1-0.4,0.3-0.9,0.8-1.2c0.3,0.6,0.5,1.2,0.6,1.9c0.1,1.4,0,2.8-0.7,4c-0.5,1-1.1,2-0.8,3.2c-1.5-0.3-2.7,0.2-3.7,1.1
						c0.1-0.2,0.2-0.4,0.4-0.6c0.2-0.2,0.4-0.4,0.6-0.5c0.2-0.1,0.4-0.3,0.6-0.4c-0.8,0-1.5,0-2.2,0.1c-1.1,0.1-1.7,0.4-3,1.4
						C20.1,37.9,21,37.7,21.5,37.2z M26.4,35.8c1.7-1.3,2.2-3.1,2.1-5.1C28.4,32.6,27.9,34.4,26.4,35.8z"/>
					<path class="st1" d="M22,29.6c0.2-0.9,0.6-1.5,1.4-1.8c0.6-0.2,1.2-0.3,1.9-0.4c0.2,0,0.4,0,0.6,0c0.3,0,0.4-0.2,0.2-0.5
						c-0.1-0.2-0.2-0.3-0.4-0.5c-1.6-1.7-3.6-2.3-5.9-1.7c-0.6,0.2-1.3,0.4-1.9,0.6c0.3-0.2,0.6-0.5,0.9-0.6c1-0.5,2.1-0.7,3.3-0.7
						c0.3,0,0.7,0,1.2,0c-1.1-1.2-1.9-2.4-1.6-4.1c0.4,2.7,2.4,4,4.4,5.4c0.2-0.7,0.1-1.3,0-2c-0.1-0.7-0.5-1.2-0.9-1.7
						c-0.3-0.3-0.5-0.6-0.8-1c-0.5-0.6-0.7-1.4-0.6-2.2c0,0.2,0.1,0.3,0.1,0.5c0.1,0.2,0.1,0.4,0.2,0.5c0.2,0.5,0.5,1,1,1.4
						c0.5,0.3,0.8,0.2,0.9-0.3c0.1-0.5,0.1-1,0-1.4c-0.1-0.5-0.3-0.9-0.5-1.3c-0.2-0.6-0.1-1.1,0.1-1.7c-0.1,1,0.3,1.9,0.7,2.7
						c0.3,0.8,0.4,1.7,0.2,2.5c-0.1,0.5,0,0.9,0,1.4c0.1,0.9,0.2,1.7,0.3,2.6c0,0.3,0.2,0.6,0.2,0.9c0,0.1,0,0.3,0,0.5
						c0,0,0,0,0,0.1c-0.2,0.3-0.4,0.8-0.7,1c-0.3,0.2-0.7,0-1.1,0c-0.4,0-0.9,0.1-1.3,0.2C23.1,28.4,22.3,28.8,22,29.6z"/>
					<path class="st1" d="M27.5,37.4c-0.2-1,0.2-1.9,0.8-2.8c0,0,0.1,0,0.1,0c0.9,1.2,2.2,1.6,3.6,1.7c1.2,0.1,2.5,0.1,3.7,0.2
						c0.8,0.1,1.6,0.4,2.2,1c-0.2-0.1-0.3-0.1-0.5-0.2c-0.2-0.1-0.3-0.2-0.5-0.2c-0.2,0-0.3-0.1-0.5-0.1c0,0,0,0.1-0.1,0.1
						c0.2,0.3,0.4,0.7,0.6,1c-0.6-0.7-1.3-1.3-2.3-1.3c-0.5,0-1,0-1.5,0.3c0.5,0.6,1.4,0.7,1.6,1.7c-0.7-0.8-1.5-1.2-2.4-1.4
						c-0.9-0.2-1.8-0.2-2.8-0.2c0.6,0.4,1.2,0.8,1.5,1.5c-0.5-0.3-1-0.7-1.5-0.9C28.8,37.6,28.2,37.6,27.5,37.4z"/>
					<path class="st1" d="M25.2,16.2c-0.7-0.6-1.3-1.2-1.9-1.7c0,0-0.1,0.1-0.1,0.1c0.6,0.6,1.2,1.3,1.8,2c-1.4,0.3-2.5-1-2.6-2.8
						c0.8,0.3,1.5,0.4,2.2,0.9C25,15,25.3,15.5,25.2,16.2z"/>
					<path class="st1" d="M32.2,13.6c-0.2,2-1.1,3.1-2.6,2.9c0.3-0.4,0.6-0.7,0.9-1.1c0.3-0.3,0.6-0.6,0.9-0.9c0,0-0.1-0.1-0.1-0.1
						c-0.6,0.6-1.3,1.1-2,1.8c0.1-0.4,0-0.7,0.2-0.9c0.2-0.3,0.4-0.7,0.8-0.8C30.9,14.1,31.6,13.9,32.2,13.6z"/>
					<path class="st1" d="M36.1,23.9c1-0.1,1.9-0.1,2.8-0.2c0,0,0,0,0-0.1c-0.4,0-0.9-0.1-1.3-0.1c-0.5,0-0.9,0-1.3,0
						c0.1-0.5,0.8-0.8,1.5-0.7c0.8,0.1,1.5,0.5,2.2,0.8C38.8,24.9,36.9,25.1,36.1,23.9z"/>
					<path class="st1" d="M14.7,23.7c0.9-0.4,1.7-0.9,2.7-0.8c0.5,0.1,0.8,0.3,1,0.8c-0.9,0-1.8,0-2.8,0c0,0,0,0.1,0,0.1
						c0.9,0.1,1.8,0.1,2.8,0.2C18,25.1,15.8,24.9,14.7,23.7z"/>
					<path class="st1" d="M35,25.4c0.4,0.9,0.7,1.8,1,2.7c0,0,0.1,0,0.1,0c-0.2-0.9-0.5-1.7-0.7-2.6c0.6,0.2,1.1,0.7,1.2,1.5
						c0,0.3,0,0.7,0,1c0,0.4-0.1,0.7-0.1,1.1C34.8,28.2,34.1,26.6,35,25.4z"/>
					<path class="st1" d="M23.2,18.7c-1.4,0.3-2.5-0.9-2.6-2.8c0.9,0.4,1.9,0.5,2.5,1.3c0.2,0.3,0.4,0.7,0.2,1.1
						c-0.7-0.6-1.4-1.2-2-1.8c0,0,0,0.1-0.1,0.1C21.9,17.4,22.5,18,23.2,18.7z"/>
					<path class="st1" d="M31.3,18.4c-0.1-0.6,0.1-1.3,0.7-1.6c0.6-0.4,1.3-0.6,2-0.9c0.2,1.6-1.1,3.1-2.5,2.8
						c0.7-0.7,1.3-1.4,1.9-2c0,0,0-0.1-0.1-0.1C32.6,17.2,31.9,17.8,31.3,18.4z"/>
					<path class="st1" d="M18.2,29c0-0.7-0.1-1.4-0.1-2.1c0-0.7,0.4-1.3,1.2-1.5c-0.3,0.9-0.5,1.8-0.8,2.7c0,0,0.1,0,0.1,0
						c0.3-0.9,0.7-1.7,1-2.6C20.5,26.6,19.8,28.2,18.2,29z"/>
					<path class="st1" d="M27.3,13.2c0.4,0.9,1.1,1.7,0.9,2.8c-0.1,0.4-0.3,0.7-0.6,0.9c-0.1-0.9-0.1-1.8-0.2-2.8
						c-0.1,0-0.1,0-0.2,0c0,0.9,0,1.8,0,2.8C26,16.4,26.1,14.5,27.3,13.2z"/>
					<path class="st1" d="M33.5,20.4c0.4-0.7,1-0.9,1.7-0.8c0.7,0.2,1.4,0.5,2.1,0.7c-1.3,1.3-3.1,1.5-3.8,0.4
						c0.5-0.1,1-0.1,1.4-0.1c0.5,0,0.9,0,1.4-0.1C35.4,20.3,34.5,20.3,33.5,20.4z"/>
					<path class="st1" d="M21.1,20.4c-1,0-1.9,0-2.8,0c0,0,0,0.1,0,0.1c0.9,0.1,1.8,0.1,2.8,0.2c-0.6,1.2-2.6,1-3.8-0.3
						c0.8-0.3,1.5-0.8,2.4-0.8C20.3,19.6,20.7,19.8,21.1,20.4z"/>
					<path class="st1" d="M21.7,28.2c-0.5,0.1-1.1,0.3-1.6,0.4c-0.1,0-0.2,0.1-0.4,0.2c0.7-0.1,1.4-0.2,2.1-0.3
						c-0.4,1-1.8,1.2-2.9,0.5C20,27.9,21.1,27.5,21.7,28.2z"/>
					<path class="st1" d="M30.7,29c0.1,0.3,0.3,0.7,0.4,1c0.1,0.3,0.2,0.7,0.3,1c0,0,0.1,0,0.1,0c-0.2-0.6-0.4-1.3-0.5-1.9
						c0.8,0.1,1.1,1,0.8,2.7C30.7,31.4,30,29.9,30.7,29z"/>
					<path class="st1" d="M35.6,29c-1.1,0.7-2.4,0.5-2.9-0.5c0.8,0.1,1.4,0.2,2.1,0.3c0,0,0-0.1,0-0.1c-0.7-0.2-1.3-0.3-1.9-0.5
						C33.4,27.5,34.6,27.9,35.6,29z"/>
					<path class="st1" d="M23.6,29c-0.2,0.6-0.4,1.3-0.5,1.9c0,0,0.1,0,0.1,0c0.2-0.6,0.5-1.3,0.8-2c0.7,0.9,0.2,2.2-1,2.7
						C22.5,30.3,22.7,29.1,23.6,29z"/>
					<path class="st1" d="M23.2,25.3c-0.1,1.1-1.1,1.7-2.4,1.5c0.4-1.3,1.4-2,2.2-1.7c-0.5,0.4-1,0.7-1.4,1c0,0,0,0.1,0.1,0.1
						C22.1,25.9,22.6,25.6,23.2,25.3z"/>
					<path class="st1" d="M31.7,25.1c0.8-0.4,1.7,0.4,2.2,1.6c-1.2,0.3-2.4-0.4-2.4-1.4c0.6,0.3,1.1,0.7,1.7,1c0,0,0-0.1,0.1-0.1
						C32.7,25.8,32.2,25.4,31.7,25.1z"/>
					<path class="st1" d="M17.4,26c-0.1,1.1-1.1,1.7-2.4,1.5c0.5-1.3,1.4-2.1,2.2-1.7c-0.5,0.4-1,0.7-1.5,1.1c0,0,0,0.1,0.1,0.1
						C16.3,26.7,16.8,26.4,17.4,26z"/>
					<path class="st1" d="M39.6,27.5c-1.4,0.2-2.4-0.4-2.4-1.5c0.6,0.3,1.1,0.7,1.7,1c0,0,0-0.1,0.1-0.1c-0.5-0.4-1-0.7-1.5-1.1
						C38.1,25.4,39.1,26.2,39.6,27.5z"/>
					<path class="st1" d="M15.8,20.9c1.1,0.1,1.8,0.6,1.7,1.3c-0.3-0.3-0.7-0.5-1-0.8c0,0,0,0-0.1,0.1c0.3,0.3,0.6,0.6,1,0.9
						C16.7,22.6,15.9,22,15.8,20.9z"/>
					<path class="st1" d="M37.2,22.4c0.4-0.4,0.7-0.7,1-1c0,0,0,0-0.1-0.1c-0.3,0.3-0.7,0.5-1,0.8c-0.1-0.6,0.6-1.2,1.7-1.3
						C38.8,21.8,38,22.6,37.2,22.4z"/>
					<path class="st1" d="M21.3,14.9c0.3,0.3,0.6,0.5,0.9,0.8c-0.8,0.2-1.5-0.5-1.6-1.4c1,0,1.7,0.5,1.7,1.2
						c-0.3-0.2-0.6-0.5-0.9-0.7C21.3,14.9,21.3,14.9,21.3,14.9z"/>
					<path class="st1" d="M31.3,22.4c-0.6,0.9-1.4,1.2-2.1,0.7c0.5-0.2,0.9-0.3,1.3-0.5c0,0,0-0.1,0-0.1c-0.4,0.1-0.8,0.2-1.2,0.3
						C29.3,22.2,30.3,22,31.3,22.4z"/>
					<path class="st1" d="M25.4,22.8c-0.4-0.1-0.7-0.2-1-0.3c-0.1,0-0.2,0-0.2,0c0.4,0.1,0.8,0.3,1.3,0.5c-0.6,0.5-1.5,0.2-2-0.7
						C24.2,22,25.1,22.2,25.4,22.8z"/>
					<path class="st1" d="M20.6,18.6c-0.4-0.3-0.7-0.6-1.1-0.9c0,0,0,0-0.1,0.1c0.3,0.3,0.7,0.7,1,1c-0.7,0.3-1.4-0.4-1.6-1.4
						C19.8,17.3,20.6,17.9,20.6,18.6z"/>
					<path class="st1" d="M35.1,17.8c-0.4,0.3-0.7,0.6-1.1,0.8c-0.2-0.7,0.7-1.2,1.6-1.2c0.1,0.8-0.7,1.6-1.5,1.5
						C34.5,18.5,34.9,18.2,35.1,17.8C35.2,17.8,35.2,17.8,35.1,17.8z"/>
					<path class="st1" d="M25.5,14.7c-0.8-0.4-0.8-1.3-0.3-2.2c0.7,0.7,1,1.7,0.5,2c0-0.2-0.1-0.5-0.1-0.7c0-0.2-0.1-0.4-0.2-0.6
						C25.4,13.7,25.5,14.1,25.5,14.7z"/>
					<path class="st1" d="M29.3,12.5c0.6,0.9,0.5,1.7-0.3,2.2c0.1-0.5,0.1-1,0.1-1.4c0,0-0.1,0-0.1,0c-0.1,0.4-0.2,0.9-0.3,1.3
						C28.3,14.2,28.6,13.2,29.3,12.5z"/>
					<path class="st1" d="M33.9,23.8c0.3-0.4,0.7-0.7,1-1c0,0,0,0,0-0.1c-0.4,0.3-0.7,0.6-1.1,0.9c-0.2-0.6,0.6-1.2,1.7-1.3
						C35.5,23.2,34.7,24,33.9,23.8z"/>
					<path class="st1" d="M20.7,23.8c-0.8,0.2-1.5-0.4-1.6-1.5c1,0,1.8,0.5,1.7,1.2c-0.4-0.3-0.7-0.6-1.1-0.9c0,0,0,0-0.1,0.1
						C20,23.1,20.3,23.4,20.7,23.8z"/>
					<path class="st1" d="M34,14.3c0,0.9-0.7,1.7-1.5,1.5c0.2-0.2,0.3-0.4,0.5-0.5c0.2-0.2,0.4-0.3,0.5-0.5c0,0,0-0.1-0.1-0.1
						c-0.4,0.3-0.7,0.6-1.1,0.8C32.1,14.9,33,14.4,34,14.3z"/>
					<path class="st1" d="M33,30.2c0.6,0.2,0.7,1.1,0.4,1.9c-0.8-0.4-1.1-1.2-0.7-2c0.2,0.5,0.3,0.9,0.5,1.4c0,0,0,0,0.1,0
						C33.2,31.1,33.1,30.7,33,30.2z"/>
					<path class="st1" d="M21.3,31.6c0.2-0.4,0.3-0.9,0.5-1.3c0.5,0.6,0.2,1.4-0.6,1.9c-0.4-0.9-0.2-1.6,0.4-1.9
						C21.5,30.7,21.4,31.1,21.3,31.6C21.3,31.5,21.3,31.5,21.3,31.6z"/>
					<path class="st1" d="M26.9,22.9c-0.3-0.5,0-1.1,0.8-1.7c0.4,0.7,0.1,1.5-0.6,1.8c0.1-0.2,0.1-0.4,0.2-0.6
						c0.1-0.2,0.1-0.3,0.2-0.5c0,0-0.1,0-0.1,0C27.2,22.2,27.1,22.5,26.9,22.9z"/>
					<path class="st1" d="M31.7,20.7c-0.4,0.1-0.8,0.2-1.1,0.3c0.2-0.6,0.7-0.7,1.8-0.4c-0.3,0.7-1.1,1.1-1.8,0.6
						C31,21.1,31.4,20.9,31.7,20.7C31.8,20.8,31.7,20.7,31.7,20.7z"/>
					<path class="st1" d="M22.8,20.8c0.4,0.2,0.8,0.3,1.2,0.4c-0.7,0.4-1.3,0.2-1.8-0.6c0.8-0.4,1.6-0.2,1.8,0.4
						c-0.3-0.1-0.7-0.2-1-0.2C22.9,20.7,22.9,20.7,22.8,20.8z"/>
					<path class="st1" d="M27.6,18.7c-0.8,0.1-1.4-0.6-1.3-1.4c0.9,0.1,1.6,0.6,1.4,1.2c-0.3-0.2-0.6-0.5-0.9-0.7c0,0,0,0-0.1,0.1
						C27,18.1,27.2,18.4,27.6,18.7z"/>
					<path class="st1" d="M29.4,18.4c0.7,0.7,0.9,1.3,0.6,1.8c0-0.2-0.1-0.4-0.1-0.5c0-0.2-0.1-0.3-0.2-0.5c0.1,0.4,0.1,0.7,0.2,1.1
						C29.1,20,28.9,19.3,29.4,18.4z"/>
					<path class="st1" d="M25.2,18.5c0.4,0.9,0.3,1.5-0.3,1.9c0.1-0.4,0.1-0.8,0.2-1.1c0,0-0.1,0-0.1,0c-0.1,0.3-0.2,0.6-0.3,1
						C24.2,19.9,24.6,19,25.2,18.5z"/>
				</g>
			</g>
		</g>
		<path class="st3" d="M46.9,53.8c-0.1,0-0.5-1.2-3.1-3.7c-2.6-2.3-7.5-5.8-16.3-6c-8.9,0.2-13.7,3.7-16.3,6c-2.6,2.5-3,3.6-3.1,3.7
			c-1.7-1.6-3.4-3.2-5.2-4.8c0.1,0,1.3-2.2,5.1-5.2c3.7-2.9,10.1-6.7,19.6-6.7c9.4,0,15.8,3.8,19.6,6.7c3.8,3,5,5.3,5.1,5.2
			C50.3,50.7,48.6,52.2,46.9,53.8z"/>
		<g>
			<path class="st1" d="M8.1,49C8.1,49,8.1,49,8.1,49l0.1,0.2c0,0.1,0.1,0.1,0.1,0.1c0,0,0.1,0,0.1,0c0,0,0.1,0,0.1-0.1c0,0,0,0,0,0
				c0,0,0,0,0,0.1c-0.1,0.1-0.1,0.1-0.2,0.2c0,0-0.1,0.1-0.2,0.2c0,0,0,0-0.1,0c0,0,0,0,0,0c0,0,0,0,0-0.1c0-0.1,0-0.2,0-0.3
				l-0.6-1.5c0-0.1,0-0.1,0-0.2c0,0,0.1,0,0.1,0c0.1,0,1.1,0.4,1.5,0.5c0.2,0.1,0.3,0.1,0.3,0c0,0,0,0,0.1,0c0,0,0,0,0,0
				c0,0,0,0,0,0.1c-0.2,0.2-0.4,0.4-0.5,0.5c0,0,0,0-0.1,0c0,0,0,0,0,0c0,0,0,0,0-0.1l-0.4-0.2c0,0,0,0,0,0L8.1,49z M8.3,48.5
				C8.3,48.5,8.3,48.5,8.3,48.5l-0.5-0.2c0,0,0,0,0,0L8,48.8c0,0,0,0,0,0L8.3,48.5z"/>
			<path class="st1" d="M9.4,47c-0.2-0.3-0.2-0.3-0.3-0.3c-0.1-0.1-0.1-0.1-0.1,0c0,0,0,0-0.1,0c0,0,0,0,0,0c0,0,0,0,0-0.1
				c0.1-0.1,0.2-0.2,0.3-0.2c0,0,0.5-0.4,0.5-0.4c0,0,0.1-0.1,0.1-0.1c0,0,0,0,0,0c0,0,0,0,0,0c0,0,0,0.1,0.1,0.1
				c0,0,0.1,0.1,0.1,0.2c0,0,0,0,0,0c0,0,0,0,0,0c0,0,0,0-0.1,0c0,0-0.1,0-0.2,0c-0.1,0-0.2,0.2-0.3,0.2c0,0,0,0,0,0l0.3,0.4
				c0,0,0,0,0,0c0.1,0,0.2-0.1,0.2-0.2c0.1-0.1,0.1-0.1,0.1-0.2c0,0,0,0,0,0c0,0,0,0,0,0c0,0,0.1,0.1,0.1,0.2c0,0,0.1,0.1,0.1,0.1
				c0,0,0,0,0,0c0,0,0,0,0,0c0,0,0,0,0,0c0,0-0.1-0.1-0.2,0c-0.1,0-0.2,0.1-0.2,0.2c0,0,0,0,0,0L10,47c0.1,0.2,0.2,0.2,0.3,0.3
				c0,0,0.1,0.1,0.2,0c0,0,0,0,0.1,0c0,0,0,0,0.1,0c0,0,0,0,0,0.1c-0.1,0.1-0.1,0.1-0.3,0.2c-0.1,0.1-0.2,0.2-0.3,0.2c0,0,0,0,0,0
				c0,0,0,0,0,0c0,0,0,0,0,0c0,0,0-0.1,0-0.2c-0.1-0.1-0.1-0.2-0.3-0.3L9.4,47z"/>
			<path class="st1" d="M10.5,46.3c-0.3-0.4-0.2-0.8,0.3-1.2c0.4-0.3,0.9-0.2,1.2,0.1c0.3,0.4,0.2,0.9-0.2,1.2
				C11.2,46.8,10.7,46.6,10.5,46.3z M11.7,45.5c-0.2-0.3-0.5-0.5-0.8-0.3c-0.2,0.1-0.3,0.3,0,0.7c0.2,0.3,0.6,0.5,0.9,0.3
				C11.8,46.2,12,46,11.7,45.5z"/>
			<path class="st1" d="M12.8,44.9c0.1,0.2,0.2,0.3,0.4,0.3c0.1,0,0.2,0,0.2-0.1c0.1,0,0.1-0.1,0.2-0.2c0.1-0.2-0.1-0.3-0.2-0.5
				l-0.1-0.2C13,44,13,44,13,43.9c0-0.1-0.1-0.1-0.1-0.1c0,0,0,0-0.1,0c0,0,0,0,0,0c0,0,0,0,0,0c0.1-0.1,0.2-0.1,0.3-0.2
				c0,0,0.2-0.1,0.2-0.2c0,0,0,0,0.1,0c0,0,0,0,0,0c0,0,0,0-0.1,0c0,0,0,0.1,0,0.2c0,0.1,0.1,0.1,0.2,0.4l0.1,0.2
				c0.1,0.2,0.3,0.4,0.2,0.7c-0.1,0.2-0.2,0.3-0.3,0.4c-0.2,0.1-0.4,0.2-0.5,0.2c-0.1,0-0.3-0.1-0.5-0.4l-0.2-0.3
				c-0.2-0.3-0.2-0.3-0.2-0.4c0,0-0.1-0.1-0.1,0c0,0-0.1,0-0.1,0c0,0,0,0,0,0c0,0,0,0,0,0c0.1,0,0.3-0.2,0.3-0.2
				c0,0,0.2-0.2,0.3-0.2c0,0,0.1,0,0.1,0c0,0,0,0,0,0c0,0,0,0-0.1,0c0,0,0,0.1,0,0.1c0,0.1,0.1,0.1,0.2,0.4L12.8,44.9z"/>
			<path class="st1" d="M13.7,43.4c0-0.1,0-0.1,0-0.1c0,0,0,0,0.1,0c0.1,0,0.6,0.1,0.9,0.2c0.3,0.1,0.5,0.1,0.5,0.1l-0.3-0.6
				c-0.1-0.1-0.1-0.1-0.2-0.1c0,0-0.1,0-0.1,0c0,0,0,0,0,0c0,0,0,0,0,0c0.1,0,0.2-0.1,0.3-0.1c0,0,0.1-0.1,0.2-0.1c0,0,0,0,0.1,0
				c0,0,0,0,0,0c0,0,0,0,0,0c-0.1,0-0.1,0.1,0,0.2c0.2,0.4,0.4,0.7,0.5,1.1c0.1,0.1,0.1,0.1,0,0.1c0,0-0.1,0-0.3,0
				c-0.2,0-0.4-0.1-0.5-0.1c-0.2,0-0.4-0.1-0.6-0.2l0.3,0.6c0.1,0.1,0.1,0.2,0.2,0.2c0,0,0.1,0,0.1,0c0,0,0,0,0.1,0c0,0,0,0,0,0
				c-0.1,0-0.1,0.1-0.2,0.1c-0.1,0-0.2,0.1-0.3,0.1c0,0,0,0-0.1,0c0,0,0,0,0,0c0,0,0,0,0.1,0c0.1-0.1,0.1-0.1,0-0.3
				C14.1,44,13.8,43.6,13.7,43.4z"/>
			<path class="st1" d="M15.8,42.9c-0.1-0.3-0.1-0.3-0.2-0.4c0-0.1-0.1-0.1-0.1-0.1l-0.1,0c0,0,0,0,0,0c0,0,0,0,0,0
				c0,0,0.2-0.1,0.3-0.1c0.1,0,0.1-0.1,0.3-0.1c0.4-0.2,0.6-0.2,0.9-0.1c0.1,0.1,0.3,0.2,0.4,0.4c0.1,0.2,0.1,0.5,0,0.6
				c-0.1,0.1-0.2,0.3-0.6,0.5c-0.1,0-0.3,0.1-0.4,0.1c-0.1,0-0.2,0.1-0.3,0.1c0,0,0,0,0,0c0,0,0,0,0,0c0,0,0,0,0.1,0
				c0.1,0,0-0.2-0.1-0.5L15.8,42.9z M16.3,43c0.1,0.2,0.1,0.3,0.2,0.4c0,0.1,0.1,0.1,0.1,0.1c0.1,0,0.2,0,0.2,0
				c0.1-0.1,0.2-0.1,0.3-0.3c0.1-0.1,0-0.3-0.1-0.5c-0.1-0.2-0.2-0.3-0.3-0.4c-0.2-0.1-0.4-0.1-0.5,0c0,0-0.1,0-0.1,0.1
				c0,0,0,0,0.1,0.4L16.3,43z"/>
			<path class="st1" d="M18.1,42.6C18.1,42.6,18.1,42.6,18.1,42.6l0,0.2c0,0.1,0,0.1,0,0.1c0,0.1,0.1,0,0.2,0c0,0,0,0,0,0
				c0,0,0,0,0,0c-0.1,0-0.2,0.1-0.3,0.1c0,0-0.2,0.1-0.3,0.1c0,0,0,0,0,0c0,0,0,0,0,0c0.1,0,0.1-0.1,0.2-0.2l0.1-1.4
				c0-0.1,0-0.2,0-0.2c0,0,0.1,0,0.1,0.1c0.1,0.1,0.7,0.7,0.9,1c0.1,0.1,0.2,0.2,0.3,0.1c0,0,0,0,0,0c0,0,0,0,0,0c0,0,0,0,0,0
				c-0.2,0.1-0.5,0.2-0.6,0.2c0,0,0,0,0,0c0,0,0,0,0,0c0,0,0,0,0,0l-0.2-0.2c0,0,0,0,0,0L18.1,42.6z M18.4,42.3
				C18.5,42.3,18.4,42.3,18.4,42.3l-0.3-0.4c0,0,0,0,0,0l0,0.5c0,0,0,0,0,0L18.4,42.3z"/>
			<path class="st1" d="M20,41.8c0,0.2,0.1,0.3,0.1,0.4c0,0,0,0.1,0.1,0.1c0,0,0.1,0,0.1,0c0,0,0.1,0,0.1,0c0,0,0,0,0,0
				c-0.1,0-0.4,0.1-0.4,0.1c0,0-0.3,0.1-0.3,0.1c0,0-0.1,0-0.1,0c0,0,0,0,0,0c0,0,0,0,0.1,0c0,0,0-0.1,0-0.1c0-0.1-0.1-0.2-0.1-0.4
				l-0.2-0.8c-0.1,0-0.2,0.1-0.3,0.1c-0.1,0-0.1,0.1-0.1,0.2c0,0,0,0,0,0c0,0,0,0,0,0c0,0,0,0,0,0c0-0.1,0-0.2,0-0.3c0,0,0,0,0-0.1
				c0,0,0,0,0.1,0c0,0,0.2,0,0.2-0.1l0.9-0.3c0.1,0,0.1,0,0.1,0c0,0,0.1,0,0.1,0c0,0,0,0,0,0.1c0,0,0.1,0.2,0.1,0.3c0,0,0,0,0,0
				c0,0,0,0,0,0c0,0,0,0,0,0c0-0.1-0.1-0.1-0.2-0.1c-0.1,0-0.2,0-0.4,0.1L20,41.8z"/>
			<path class="st1" d="M20.9,41.2c-0.1-0.3-0.1-0.4-0.1-0.4c0-0.1,0-0.1-0.1-0.1c0,0,0,0-0.1,0c0,0,0,0,0,0c0,0,0,0,0,0
				c0.1,0,0.3-0.1,0.3-0.1c0,0,0.3-0.1,0.4-0.1c0,0,0,0,0,0c0,0,0,0,0,0c0,0,0,0,0,0c-0.1,0-0.1,0-0.1,0.1c0,0.1,0,0.1,0.1,0.4
				l0.1,0.4c0,0.2,0.1,0.3,0.1,0.4c0,0.1,0,0.1,0.1,0.1c0,0,0.1,0,0.1,0c0,0,0,0,0.1,0c0,0,0,0,0,0c-0.1,0-0.4,0.1-0.4,0.1
				c0,0-0.2,0.1-0.3,0.1c0,0-0.1,0-0.1,0c0,0,0,0,0,0c0,0,0,0,0.1,0c0,0,0.1-0.1,0-0.1c0-0.1,0-0.2-0.1-0.4L20.9,41.2z"/>
			<path class="st1" d="M21.7,41.2c-0.1-0.4,0.2-0.9,0.8-1c0.5-0.1,0.9,0.2,1,0.6c0.1,0.5-0.2,0.9-0.7,1
				C22.2,41.9,21.8,41.5,21.7,41.2z M23.1,41c-0.1-0.3-0.2-0.7-0.6-0.6c-0.2,0-0.4,0.2-0.3,0.6c0.1,0.4,0.3,0.7,0.6,0.7
				C22.9,41.6,23.2,41.5,23.1,41z"/>
			<path class="st1" d="M23.9,40.1c0-0.1,0-0.1,0-0.1c0,0,0,0,0.1,0c0.1,0.1,0.5,0.3,0.8,0.5c0.3,0.2,0.4,0.3,0.4,0.3l-0.1-0.7
				c0-0.1,0-0.2-0.1-0.2c0,0-0.1,0-0.1,0c0,0,0,0,0,0c0,0,0,0,0,0c0.1,0,0.2,0,0.3,0c0.1,0,0.2,0,0.3,0c0,0,0,0,0,0c0,0,0,0,0,0
				c0,0,0,0,0,0c-0.1,0-0.1,0-0.1,0.2c0,0.4,0.1,0.8,0.1,1.2c0,0.1,0,0.1,0,0.1c0,0-0.1,0-0.3-0.2c-0.2-0.1-0.3-0.2-0.5-0.3
				c-0.1-0.1-0.3-0.2-0.5-0.4l0.1,0.7c0,0.1,0,0.2,0.1,0.2c0,0,0.1,0,0.1,0c0,0,0,0,0,0c0,0,0,0-0.1,0c-0.1,0-0.1,0-0.3,0
				c-0.1,0-0.2,0-0.3,0c0,0,0,0-0.1,0c0,0,0,0,0,0c0,0,0,0,0.1,0c0.1,0,0.1-0.1,0.1-0.3C24,40.9,24,40.4,23.9,40.1z"/>
			<path class="st1" d="M26.8,40.4c0-0.3,0-0.4,0-0.4c0-0.1,0-0.1-0.1-0.1c0,0-0.1,0-0.1,0c0,0,0,0,0,0c0,0,0,0,0.1,0
				c0.1,0,0.2,0,0.3,0c0,0,0.6,0,0.6,0c0,0,0.1,0,0.1,0c0,0,0,0,0,0c0,0,0,0,0,0c0,0,0,0.1,0,0.1c0,0.1,0,0.1,0,0.2c0,0,0,0,0,0
				c0,0,0,0,0,0c0,0,0,0,0-0.1c0-0.1,0-0.1-0.1-0.1c-0.1,0-0.3,0-0.3,0c0,0,0,0,0,0l0,0.5c0,0,0,0,0,0c0.1,0,0.2,0,0.3,0
				c0.1,0,0.1,0,0.2-0.1c0,0,0,0,0,0c0,0,0,0,0,0c0,0,0,0.1,0,0.2c0,0,0,0.2,0,0.2c0,0,0,0,0,0c0,0,0,0,0,0c0,0,0,0,0,0
				c0-0.1,0-0.1-0.1-0.1c-0.1,0-0.2,0-0.3,0c0,0,0,0,0,0l0,0.2c0,0.2,0,0.3,0,0.4c0,0.1,0,0.1,0.1,0.1c0,0,0.1,0,0.1,0c0,0,0,0,0,0
				s0,0,0,0c-0.1,0-0.1,0-0.4,0c-0.2,0-0.3,0-0.4,0c0,0,0,0,0,0c0,0,0,0,0,0c0,0,0,0,0.1,0c0.1,0,0.1-0.1,0.1-0.2c0-0.1,0-0.2,0-0.4
				L26.8,40.4z"/>
			<path class="st1" d="M28.1,40.6c0-0.4,0.3-0.8,1-0.8c0.6,0,0.9,0.4,0.9,0.8c0,0.5-0.4,0.8-1,0.8C28.3,41.4,28,41,28.1,40.6z
				 M29.4,40.7c0-0.3-0.1-0.7-0.5-0.8c-0.2,0-0.4,0.1-0.4,0.6c0,0.4,0.1,0.8,0.5,0.8C29.1,41.3,29.4,41.3,29.4,40.7z"/>
			<path class="st1" d="M30.4,40.5c0-0.3,0-0.4,0-0.4c0-0.1,0-0.1-0.1-0.1c0,0-0.1,0-0.1,0c0,0,0,0,0,0c0,0,0,0,0,0
				c0.1,0,0.3,0,0.3,0c0,0,0.3,0,0.4,0c0.2,0,0.4,0.1,0.4,0.1c0.1,0.1,0.2,0.2,0.2,0.3c0,0.2-0.1,0.3-0.3,0.4
				c0.1,0.2,0.2,0.4,0.3,0.6c0.1,0.1,0.1,0.2,0.2,0.2c0,0,0,0,0.1,0c0,0,0,0,0,0c0,0,0,0,0,0l-0.2,0c-0.2,0-0.4-0.1-0.4-0.1
				c-0.1,0-0.1-0.1-0.2-0.3C31,41.1,31,41,30.9,41c0,0,0,0,0,0l-0.1,0c0,0,0,0,0,0l0,0.1c0,0.2,0,0.3,0,0.3c0,0.1,0,0.1,0.1,0.1
				c0,0,0.1,0,0.1,0c0,0,0,0,0,0c0,0,0,0,0,0c-0.1,0-0.4-0.1-0.4-0.1c0,0-0.3,0-0.3,0c0,0,0,0,0,0c0,0,0,0,0,0c0,0,0.1,0,0.1,0
				c0,0,0.1,0,0.1-0.1c0-0.1,0-0.2,0.1-0.4L30.4,40.5z M30.8,40.7C30.8,40.7,30.8,40.7,30.8,40.7c0.1,0.1,0.1,0.1,0.2,0.1
				c0,0,0.1,0,0.1,0c0,0,0.1-0.1,0.1-0.2c0-0.3-0.2-0.4-0.3-0.4c0,0-0.1,0-0.1,0c0,0,0,0,0,0L30.8,40.7z"/>
			<path class="st1" d="M33.5,41.4c0,0.2-0.1,0.3-0.1,0.4c0,0.1,0,0.1,0.1,0.1c0,0,0,0,0.1,0c0,0,0,0,0,0c0,0,0,0-0.1,0
				c-0.1,0-0.4-0.1-0.4-0.1c0,0-0.3,0-0.3-0.1c0,0,0,0,0,0c0,0,0,0,0,0c0,0,0,0,0.1,0c0,0,0.1,0,0.1-0.1c0-0.1,0.1-0.2,0.1-0.4
				l0.2-0.8c-0.1,0-0.2,0-0.3-0.1c-0.1,0-0.2,0-0.2,0.1c0,0,0,0,0,0c0,0,0,0,0,0c0,0,0,0,0,0c0-0.1,0.1-0.2,0.1-0.3c0,0,0,0,0,0
				c0,0,0,0,0.1,0c0,0,0.2,0,0.2,0.1l0.9,0.2c0.1,0,0.1,0,0.1,0c0,0,0.1,0,0.1,0c0,0,0,0,0,0.1c0,0-0.1,0.2-0.1,0.3c0,0,0,0,0,0
				c0,0,0,0,0,0c0,0,0,0,0-0.1c0-0.1,0-0.1-0.1-0.2c-0.1,0-0.2-0.1-0.4-0.1L33.5,41.4z"/>
			<path class="st1" d="M35.5,41.6C35.5,41.6,35.5,41.6,35.5,41.6L35.5,41.6c0.1-0.4,0.1-0.4,0.1-0.5c0-0.1,0-0.1-0.1-0.1
				c0,0,0,0-0.1,0c0,0,0,0,0,0c0,0,0,0,0,0c0.1,0,0.3,0.1,0.3,0.1c0,0,0.3,0.1,0.4,0.1c0,0,0,0,0,0c0,0,0,0,0,0c0,0,0,0-0.1,0
				c-0.1,0-0.1,0-0.1,0.1c0,0.1,0,0.1-0.1,0.4L35.8,42c-0.1,0.2-0.1,0.3-0.1,0.4c0,0.1,0,0.1,0.1,0.1c0,0,0.1,0,0.1,0c0,0,0,0,0,0
				c0,0,0,0-0.1,0c-0.1,0-0.4-0.1-0.4-0.1c0,0-0.2,0-0.3-0.1c0,0,0,0,0,0c0,0,0,0,0,0c0,0,0,0,0.1,0c0.1,0,0.1,0,0.1-0.1
				c0-0.1,0.1-0.2,0.1-0.4l0-0.2c0,0,0,0,0,0l-0.6-0.2c0,0,0,0,0,0l-0.1,0.2c-0.1,0.2-0.1,0.3-0.1,0.3c0,0.1,0,0.1,0.1,0.1
				c0,0,0.1,0,0.1,0c0,0,0,0,0,0c0,0,0,0,0,0c-0.1,0-0.4-0.1-0.4-0.1c0,0-0.3-0.1-0.3-0.1c0,0,0,0,0,0c0,0,0,0,0,0c0,0,0,0,0.1,0
				c0.1,0,0.1,0,0.1-0.1c0-0.1,0.1-0.2,0.1-0.4l0.1-0.3c0.1-0.3,0.1-0.4,0.1-0.4c0-0.1,0-0.1-0.1-0.1c0,0,0,0-0.1,0c0,0,0,0,0,0
				c0,0,0,0,0,0c0.1,0,0.3,0.1,0.4,0.1c0.1,0,0.2,0.1,0.3,0.1c0,0,0,0,0,0c0,0,0,0,0,0c0,0,0,0-0.1,0c-0.1,0-0.1,0-0.1,0.1
				c0,0.1,0,0.1-0.1,0.4l0,0c0,0,0,0,0,0L35.5,41.6z"/>
			<path class="st1" d="M36.6,41.9c0.1-0.3,0.1-0.4,0.1-0.4c0-0.1,0-0.1,0-0.1c0,0,0,0-0.1,0c0,0,0,0,0,0c0,0,0,0,0.1,0
				c0.1,0,0.2,0.1,0.3,0.1c0,0,0.6,0.2,0.6,0.2c0,0,0.1,0,0.1,0c0,0,0,0,0,0c0,0,0,0,0,0c0,0,0,0,0,0.1c0,0,0,0.1-0.1,0.2
				c0,0,0,0,0,0c0,0,0,0,0,0c0,0,0,0,0-0.1c0,0,0-0.1-0.1-0.1c-0.1,0-0.2-0.1-0.3-0.1c0,0,0,0,0,0L37,42c0,0,0,0,0,0
				c0.1,0,0.2,0.1,0.3,0.1c0.1,0,0.1,0,0.2,0c0,0,0,0,0,0c0,0,0,0,0,0c0,0-0.1,0.1-0.1,0.2c0,0-0.1,0.1-0.1,0.2c0,0,0,0,0,0
				c0,0,0,0,0,0c0,0,0,0,0,0c0-0.1,0-0.1-0.1-0.2c-0.1,0-0.2-0.1-0.3-0.1c0,0,0,0,0,0l-0.1,0.1c0,0.1-0.1,0.2-0.1,0.2
				c0,0.1,0,0.2,0.2,0.3c0.1,0,0.1,0,0.2,0c0.1,0,0.1,0,0.2-0.1c0,0,0,0,0,0c0,0,0,0,0,0c0,0.1-0.1,0.2-0.1,0.3c0,0-0.1,0-0.1,0
				c-0.3-0.1-0.4-0.2-0.7-0.2c-0.1,0-0.2-0.1-0.3-0.1c0,0,0,0,0,0c0,0,0,0,0,0c0,0,0,0,0.1,0c0.1,0,0.1-0.1,0.2-0.2
				c0-0.1,0.1-0.2,0.1-0.3L36.6,41.9z"/>
			<path class="st1" d="M38.7,42.7c0.1-0.3,0.1-0.3,0.2-0.4c0-0.1,0-0.1,0-0.1c0,0,0,0-0.1,0c0,0,0,0,0,0c0,0,0,0,0.1,0
				c0.1,0.1,0.2,0.1,0.3,0.1c0,0,0.6,0.2,0.6,0.3c0,0,0.1,0,0.1,0c0,0,0,0,0,0c0,0,0,0,0,0c0,0,0,0.1-0.1,0.1c0,0-0.1,0.1-0.1,0.2
				c0,0,0,0,0,0c0,0,0,0,0,0c0,0,0,0,0-0.1c0-0.1,0-0.1-0.1-0.1c-0.1,0-0.3-0.1-0.3-0.1c0,0,0,0,0,0l-0.2,0.4c0,0,0,0,0,0
				c0.1,0,0.2,0.1,0.3,0.1c0.1,0,0.1,0.1,0.2,0c0,0,0,0,0,0c0,0,0,0,0,0c0,0-0.1,0.1-0.1,0.2c0,0-0.1,0.1-0.1,0.2c0,0,0,0,0,0
				c0,0,0,0,0,0c0,0,0,0,0,0c0-0.1,0-0.1-0.1-0.2c-0.1,0-0.2-0.1-0.3-0.1c0,0,0,0,0,0l-0.1,0.1c-0.1,0.2-0.1,0.3-0.2,0.4
				c0,0.1,0,0.1,0.1,0.1c0,0,0,0,0.1,0c0,0,0,0,0,0c0,0,0,0-0.1,0c-0.1,0-0.1-0.1-0.4-0.2c-0.2-0.1-0.3-0.1-0.3-0.1c0,0,0,0,0,0
				c0,0,0,0,0,0c0,0,0,0,0.1,0c0.1,0,0.1,0,0.1-0.1c0.1-0.1,0.1-0.2,0.2-0.4L38.7,42.7z"/>
			<path class="st1" d="M40.2,43.7c-0.1,0.3-0.2,0.4-0.1,0.5c0.1,0.1,0.1,0.1,0.2,0.1c0.1,0,0.1,0.1,0.2,0c0.2,0,0.3-0.2,0.4-0.4
				l0.1-0.2c0.1-0.3,0.2-0.3,0.2-0.4c0-0.1,0-0.1,0-0.2c0,0,0,0-0.1,0c0,0,0,0,0,0c0,0,0,0,0.1,0c0.1,0.1,0.2,0.1,0.3,0.1
				c0,0,0.2,0.1,0.3,0.1c0,0,0,0,0,0c0,0,0,0,0,0c0,0,0,0-0.1,0c-0.1,0-0.1,0-0.1,0.1c0,0.1-0.1,0.1-0.2,0.4l-0.1,0.2
				c-0.1,0.2-0.2,0.4-0.5,0.5c-0.2,0-0.3,0-0.5-0.1c-0.2-0.1-0.3-0.2-0.4-0.4c-0.1-0.1-0.1-0.3,0.1-0.6l0.1-0.3
				c0.2-0.3,0.2-0.3,0.2-0.4c0,0,0-0.1,0-0.1c0,0-0.1,0-0.1-0.1c0,0,0,0,0,0c0,0,0,0,0.1,0c0.1,0,0.3,0.2,0.3,0.2
				c0,0,0.3,0.1,0.3,0.2c0,0,0,0,0,0c0,0,0,0,0,0c0,0-0.1,0-0.1,0c-0.1,0-0.1,0-0.1,0.1c0,0.1-0.1,0.1-0.2,0.4L40.2,43.7z"/>
			<path class="st1" d="M42.2,44.9c-0.1,0.1-0.2,0.3-0.2,0.4c0,0,0,0.1,0,0.1c0,0,0,0,0.1,0.1c0,0,0,0,0,0.1c0,0,0,0-0.1,0
				c-0.1-0.1-0.3-0.2-0.3-0.2c0,0-0.2-0.1-0.3-0.2c0,0,0,0,0,0c0,0,0,0,0.1,0c0,0,0,0,0.1,0c0,0,0.1,0,0.1-0.1
				c0.1-0.1,0.1-0.2,0.2-0.4l0.4-0.7c-0.1,0-0.2-0.1-0.3-0.2c-0.1-0.1-0.2-0.1-0.2,0c0,0,0,0,0,0c0,0,0,0,0,0c0,0,0,0,0,0
				c0.1-0.1,0.1-0.2,0.2-0.2c0,0,0,0,0,0c0,0,0,0,0,0c0,0,0.1,0.1,0.2,0.1l0.8,0.5c0.1,0,0.1,0,0.1,0.1c0,0,0.1,0,0.1,0
				c0,0,0,0,0,0.1c0,0-0.1,0.2-0.2,0.2c0,0,0,0,0,0c0,0,0,0,0,0c0,0,0,0,0,0c0-0.1,0-0.1-0.1-0.2c-0.1,0-0.2-0.1-0.3-0.2L42.2,44.9z
				"/>
			<path class="st1" d="M43.4,45.6c-0.2,0.2-0.2,0.4-0.1,0.5c0,0.1,0.1,0.1,0.1,0.2c0.1,0,0.1,0.1,0.2,0.1c0.2,0,0.3-0.2,0.4-0.4
				l0.1-0.2c0.2-0.3,0.2-0.3,0.2-0.3c0-0.1,0.1-0.1,0-0.2c0,0,0,0-0.1-0.1c0,0,0,0,0,0c0,0,0,0,0.1,0c0.1,0.1,0.2,0.2,0.2,0.2
				c0,0,0.2,0.1,0.2,0.2c0,0,0,0,0,0c0,0,0,0,0,0c0,0,0,0-0.1,0c-0.1,0-0.1,0-0.1,0.1c0,0.1-0.1,0.1-0.3,0.3l-0.1,0.2
				c-0.1,0.2-0.3,0.4-0.6,0.4c-0.2,0-0.3-0.1-0.4-0.2c-0.2-0.1-0.3-0.3-0.3-0.4c0-0.1,0-0.3,0.2-0.6l0.2-0.3
				c0.2-0.3,0.2-0.3,0.3-0.4c0,0,0-0.1,0-0.1c0,0-0.1-0.1-0.1-0.1c0,0,0,0,0,0c0,0,0,0,0.1,0c0.1,0.1,0.3,0.2,0.3,0.2
				c0,0,0.2,0.2,0.3,0.2c0,0,0,0,0,0c0,0,0,0,0,0c0,0,0,0-0.1,0c-0.1,0-0.1,0-0.1,0.1c0,0.1-0.1,0.1-0.3,0.3L43.4,45.6z"/>
			<path class="st1" d="M44.8,46.3c0.2-0.2,0.2-0.3,0.3-0.3c0.1-0.1,0-0.1,0-0.2c0,0,0,0-0.1-0.1c0,0,0,0,0,0c0,0,0,0,0,0
				c0.1,0.1,0.2,0.2,0.3,0.2c0,0,0.2,0.2,0.3,0.2c0.2,0.1,0.3,0.3,0.3,0.3c0.1,0.1,0.1,0.3-0.1,0.4c-0.1,0.1-0.3,0.2-0.5,0.1
				c0,0.2-0.1,0.5,0,0.7c0,0.2,0,0.2,0.1,0.3c0,0,0,0,0,0c0,0,0,0,0,0c0,0,0,0,0,0L45.3,48c-0.2-0.2-0.3-0.2-0.3-0.3
				c0-0.1,0-0.2,0-0.3c0-0.2,0-0.3,0.1-0.3c0,0,0,0,0,0l-0.1-0.1c0,0,0,0,0,0l-0.1,0.1c-0.1,0.1-0.2,0.2-0.2,0.3c0,0,0,0.1,0,0.1
				c0,0,0,0.1,0.1,0.1c0,0,0,0,0,0c0,0,0,0,0,0c-0.1-0.1-0.3-0.3-0.3-0.3c0,0-0.2-0.2-0.3-0.2c0,0,0,0,0,0c0,0,0,0,0,0
				c0,0,0,0,0.1,0c0,0,0.1,0,0.1,0c0.1-0.1,0.2-0.2,0.3-0.3L44.8,46.3z M45.1,46.7C45,46.7,45,46.7,45.1,46.7c0,0.1,0.1,0.1,0.1,0.2
				c0,0,0.1,0.1,0.1,0.1c0,0,0.1,0,0.2-0.1c0.2-0.2,0.1-0.4,0-0.5c0,0-0.1,0-0.1,0c0,0,0,0,0,0L45.1,46.7z"/>
			<path class="st1" d="M46.2,47.5c0.2-0.3,0.3-0.3,0.3-0.3c0,0,0-0.1,0-0.1c0,0,0,0,0-0.1c0,0,0,0,0,0c0,0,0,0,0,0
				c0.1,0.1,0.2,0.2,0.2,0.2c0,0,0.4,0.4,0.5,0.4c0,0,0.1,0.1,0.1,0.1c0,0,0,0,0,0c0,0,0,0,0,0c0,0,0,0-0.1,0.1c0,0-0.1,0.1-0.2,0.2
				c0,0,0,0,0,0c0,0,0,0,0,0c0,0,0,0,0-0.1c0,0,0-0.1,0-0.2c-0.1-0.1-0.2-0.2-0.2-0.2c0,0,0,0,0,0l-0.3,0.3c0,0,0,0,0,0
				c0,0,0.2,0.1,0.2,0.2c0.1,0.1,0.1,0.1,0.2,0.1c0,0,0,0,0,0c0,0,0,0,0,0c0,0-0.1,0.1-0.1,0.1c0,0-0.1,0.1-0.1,0.1c0,0,0,0,0,0
				c0,0,0,0,0,0c0,0,0,0,0,0c0-0.1,0-0.1,0-0.2c0-0.1-0.2-0.2-0.2-0.2c0,0,0,0,0,0l-0.1,0.1c0,0.1-0.1,0.1-0.2,0.2
				c-0.1,0.1-0.1,0.2,0.1,0.3c0,0,0.1,0.1,0.2,0.1c0.1,0,0.1,0,0.2-0.1c0,0,0,0,0,0c0,0,0,0,0,0c-0.1,0.1-0.2,0.2-0.2,0.2
				c0,0-0.1,0-0.1,0c-0.2-0.2-0.3-0.3-0.5-0.5c-0.1-0.1-0.2-0.1-0.2-0.2c0,0,0,0,0-0.1c0,0,0,0,0,0c0,0,0,0,0.1,0
				c0.1,0,0.1,0,0.2-0.1c0.1-0.1,0.1-0.1,0.2-0.2L46.2,47.5z"/>
		</g>
	</g>
</g>
</svg>
